<ttFont>
          <CharString index="0">
            226 167 rmoveto
            0 -72 -132 -28 vvcurveto
            -9 2 -12 13 33 91 79 59 callsubr
            -103 callgsubr
            -13 -14 -36 -37 -14 hhcurveto
            -4 47 callsubr
            21 25 46 16 28 hvcurveto
            19 34 75 128 24 44 rrcurveto
            0 8 11 8 -6 callsubr
            -7 -35 -32 -98 callsubr
            return
          </CharString>
          <CharString index="1">
            437 352 rmoveto
            -22 -1 -21 -7 -20 -8 rrcurveto
            41 callgsubr
            1 2 1 1 0 hvcurveto
            17 29 7 21 15 vvcurveto
            29 -22 15 -34 -32 callsubr
            -44 16 -43 55 -40 callgsubr
            vhcurveto
            -74 callsubr
            -95 -24 rmoveto
            -1 -4 -8 -3 0 vvcurveto
            -46 -20 -6 -22 -10 12 callsubr
            -2 0 vhcurveto
            -116 -16 -100 -137 -55 hhcurveto
            -18 -9 14 24 105 155 271 83 18 10 -14 -28 -14 -3 -18 -5 -22 hvcurveto
            return
          </CharString>
          <CharString index="2">
            -107 callsubr
            -40 -53 -84 -157 0 0 -66 -120 -45 vvcurveto
            return
          </CharString>
          <CharString index="3">
            3 3 2 8 hvcurveto
            45 8 49 -1 callgsubr
            -6 1 -2 vhcurveto
            22 callgsubr
            -81 callgsubr
            hvcurveto
            0 -4 10 callsubr
            -2 3 -2 4 17 69 27 49 50 vhcurveto
            0 3 39 callsubr
            -1 -3 1 vhcurveto
            endchar
          </CharString>
          <CharString index="4">
            3 -60 callsubr
            7 -12 0 32 callgsubr
            -36 0 -13 -81 callgsubr
            -69 callsubr
            -2 9 vhcurveto
            0 88 24 61 70 vhcurveto
            return
          </CharString>
          <CharString index="5">
            -103 callsubr
            endchar
          </CharString>
          <CharString index="6">
            hstem
            291 57 vstem
            351 -96 rmoveto
            6 -3 12 12 vvcurveto
            73 56 127 0 vhcurveto
            89 220 185 285 8 callgsubr
            36 27 48 0 vvcurveto
            5 8 1 6 39 callgsubr
            3 -10 -20 -34 -10 -15 -16 vhcurveto
            -47 -43 -108 -178 0 vvcurveto
            -216 -305 -96 -72 0 vvcurveto
            -13 -17 -11 -5 -7 hhcurveto
            -11 -3 12 10 9 2 9 0 hvcurveto
            50 181 183 300 0 vvcurveto
            47 72 11 24 58 callsubr
            7 31 callsubr
            -4 3 -11 -22 -44 -18 -46 -33 vhcurveto
            -23 -32 -296 -421 -200 vvcurveto
            -28 8 -25 25 35 120 78 247 190 vhcurveto
            0 7 39 callsubr
            44 callsubr
            0 -3 -2 24 callgsubr
            -97 -157 -131 vvcurveto
            -44 10 -40 29 -31 vhcurveto
            -1 2 5 -3 5 hhcurveto
            5 4 3 8 hvcurveto
            return
          </CharString>
          <CharString index="7">
            rmoveto
            -102 callsubr
          </CharString>
          <CharString index="8">
            519 666 -55 callgsubr
            -92 -53 -104 -158 -108 -91 callsubr
            -40 callsubr
            vhcurveto
            -88 callgsubr
            return
          </CharString>
          <CharString index="9">
            -21 -28 -18 vhcurveto
            -47 -74 -43 -46 0 vvcurveto
            -78 -95 -65 -56 0 vvcurveto
            -10 -12 -12 -8 -7 hhcurveto
            -4 -2 2 5 18 48 88 18 33 hvcurveto
            41 76 46 68 17 30 rrcurveto
            3 -45 callsubr
            5 -4 2 -6 -20 -45 -24 -37 -29 vhcurveto
            return
          </CharString>
          <CharString index="10">
            hhcurveto
            91 82 4 0 hvcurveto
            24 4 6 14 0 vvcurveto
            74 97 48 123 0 vvcurveto
            1 -60 callsubr
            6 -4 2 -4 -6 -8 -4 -7 -4 vhcurveto
            -191 -139 -103 -30 -50 hhcurveto
            -24 -29 5 25 6 1 7 3 9 hvcurveto
            24 81 90 168 54 98 rrcurveto
            12 hlineto
            47 50 1 2 41 hvcurveto
            return
          </CharString>
          <CharString index="11">
            522 740 rmoveto
            8 6 3 5 4 vvcurveto
            7 -12 2 0 vhcurveto
            4 -28 -26 2 -23 hhcurveto
            -108 -120 -42 -115 -24 callgsubr
            3 hvcurveto
            0 67 157 113 12 18 -1 -8 -23 callsubr
            19 callgsubr
            -101 -78 -165 -316 vhcurveto
            0 -156 -295 -96 -61 vhcurveto
            0 -12 61 callsubr
            -9 19 0 4 150 95 215 113 62 vhcurveto
            47 85 141 306 83 65 rrcurveto
            return
          </CharString>
          <CharString index="12">
            -22 callgsubr
            -13 -14 -36 -37 -14 hhcurveto
            -4 47 callsubr
            21 25 47 16 28 hvcurveto
            18 34 74 128 23 43 rrcurveto
            4 8 3 7 4 vvcurveto
            4 -3 3 -5 return
          </CharString>
          <CharString index="13">
            -61 callsubr
            -92 callgsubr
          </CharString>
          <CharString index="14">
            54 7 78 64 vhcurveto
            343 157 -92 callsubr
            return
          </CharString>
          <CharString index="15">
            rmoveto
            0 7 -18 callsubr
            33 callgsubr
            -23 callsubr
            -1 callsubr
            -85 45 callgsubr
            -192 23 callgsubr
            -9 -3 -1 47 callsubr
            -2 vhcurveto
            -16 56 -23 50 -26 40 52 70 68 80 86 75 rrcurveto
            return
          </CharString>
          <CharString index="16">
            hhcurveto
            -49 -8 52 34 235 203 256 62 60 hvcurveto
            -83 callsubr
            -64 19 -57 67 return
          </CharString>
          <CharString index="17">
            -130 -152 -124 -174 -2 -111 rrcurveto
            -15 4 -8 7 5 8 5 8 7 vhcurveto
            0 59 76 81 167 vhcurveto
            0 35 75 71 100 vhcurveto
            40 -62 24 -80 -52 return
          </CharString>
          <CharString index="18">
            156 481 -90 callgsubr
            return
          </CharString>
          <CharString index="19">
            32 31 42 43 57 63 -106 callgsubr
            -99 -113 -53 -49 0 vvcurveto
            return
          </CharString>
          <CharString index="20">
            88 35 rmoveto
            35 67 91 160 0 vvcurveto
            147 241 209 163 0 vvcurveto
            59 47 80 59 12 vvcurveto
            7 -13 1 0 -3 callsubr
            -183 -252 0 vvcurveto
            47 callgsubr
            -1 -2 hhcurveto
            -5 -1 8 0 hvcurveto
            43 223 7 165 8 callgsubr
            -9 1 -7 -37 -20 -10 -8 -12 vhcurveto
            -8 -6 -2 54 callgsubr
            -4 32 callgsubr
            3 -12 -21 vvcurveto
            -103 -30 -244 -46 -90 vhcurveto
            0 -76 -154 -82 -123 vhcurveto
            -36 callgsubr
            return
          </CharString>
          <CharString index="21">
            19 -18 27 56 94 73 46 46 vhcurveto
            -88 callsubr
            return
          </CharString>
          <CharString index="22">
            hintmask 1011101110000000
            -89 callsubr
            hintmask 1101110110000000
            -100 callgsubr
            hintmask 1011110110000000
            -93 callsubr
            return
          </CharString>
          <CharString index="23">
            -84 callgsubr
            -26 -33 -10 -8 -19 vhcurveto
            return
          </CharString>
          <CharString index="24">
            6 7 2 5 3 57 callsubr
            -5 -3 -5 21 callsubr
            vhcurveto
            -116 -37 -238 -265 -279 vvcurveto
            return
          </CharString>
          <CharString index="25">
            51 -15 38 -43 -91 -115 -122 -86 -29 vhcurveto
            -69 callgsubr
            return
          </CharString>
          <CharString index="26">
            hintmask 01111110
            -107 callgsubr
            hintmask 10111110
            -45 callgsubr
            return
          </CharString>
          <CharString index="27">
            38 callgsubr
            335 -22 callgsubr
            -15 -16 -32 -34 -17 hhcurveto
            -5 -2 3 5 28 59 92 17 28 hvcurveto
            69 114 8 47 0 vvcurveto
            13 -7 3 -7 -10 -11 -5 0 vhcurveto
            -106 6 callsubr
            -4 -16 callsubr
            16 31 83 145 32 51 rrcurveto
            2 3 1 4 3 0 callgsubr
            3 -6 vhcurveto
            -63 -5 -37 -62 -29 -48 rrcurveto
            0 -59 -101 -39 -71 vhcurveto
            0 -76 -135 -19 vvcurveto
            -6 6 -2 8 42 27 -33 callsubr
            -16 -71 -106 -40 -72 vhcurveto
            -5 -10 -48 -80 -40 vvcurveto
            return
          </CharString>
          <CharString index="28">
            -5 2 -4 7 27 40 21 26 16 vhcurveto
            0 29 58 41 73 vhcurveto
            10 1 7 0 11 2 13 1 32 3 24 42 rrcurveto
            6 249 rmoveto
            0 -72 -123 -70 -119 vhcurveto
            -59 1 -32 5 0 vvcurveto
            -9 2 -2 4 3 vvcurveto
            6 5 6 32 callgsubr
            103 132 128 91 vhcurveto
            0 5 46 callgsubr
            2 -1 -2 -1 19 callsubr
            -4 vhcurveto
            return
          </CharString>
          <CharString index="29">
            hlineto
            92 155 93 143 53 40 rrcurveto
            15 19 14 7 7 hhcurveto
            4 2 -2 -5 -20 -39 -65 -19 -28 hvcurveto
            -2 -3 -1 -2 -3 vvcurveto
            -3 1 -2 3 2 3 1 1 3 vhcurveto
            29 12 99 73 70 vvcurveto
            20 -16 1 -8 -40 -100 -41 -118 -102 vhcurveto
            -53 -62 -61 -93 -56 -91 rrcurveto
            -30 hlineto
            -7 -4 47 callgsubr
            2 -3 4 -2 hvcurveto
            return
          </CharString>
          <CharString index="30">
            rmoveto
            -16 15 18 -3 20 hhcurveto
            19 4 7 6 7 -5 22 callsubr
            -58 100 -26 55 -1 18 rrcurveto
            8 6 6 0 vhcurveto
            30 34 249 137 0 vvcurveto
            12 8 31 callsubr
            -13 2 -14 -17 -13 0 -12 -27 vhcurveto
            -41 -21 -53 -31 -49 -29 rrcurveto
            -86 -52 -51 -37 0 0 -14 -11 -17 vvcurveto
            -40 67 -111 26 -28 vhcurveto
            return
          </CharString>
          <CharString index="31">
            44 27 87 94 47 vvcurveto
            18 -11 11 -21 -37 -32 -44 -45 vhcurveto
            -5 -35 -24 -35 -13 -23 rrcurveto
            -2 -3 -3 -6 -5 vvcurveto
            -4 3 -1 3 -18 callsubr
            2 3 vhcurveto
            return
          </CharString>
          <CharString index="32">
            -54 -22 -63 -58 vvcurveto
            -36 8 -88 76 9 3 3 4 5 -4 5 0 vhcurveto
            -8 15 -3 23 return
          </CharString>
          <CharString index="33">
            0 60 callgsubr
            10 vhcurveto
            14 13 25 19 19 19 rrcurveto
            5 5 3 5 4 vvcurveto
            3 -3 2 -6 1 vhcurveto
            return
          </CharString>
          <CharString index="34">
            16 3 19 19 14 vvcurveto
            4 -3 5 -14 vhcurveto
            return
          </CharString>
          <CharString index="35">
            22 23 25 27 29 32 -106 callgsubr
            -43 -49 -35 -38 -25 -26 -33 -30 -35 -29 return
          </CharString>
          <CharString index="36">
            -27 -34 -36 -34 -17 10 -11 15 hvcurveto
            161 hmoveto
            return
          </CharString>
          <CharString index="37">
            rmoveto
            2 4 0 2 2 57 callsubr
            -4 -7 -18 -4 -1 -36 vhcurveto
            76 133 94 158 10 21 rrcurveto
            2 3 0 1 2 vvcurveto
            8 -12 1 -6 -5 -4 -29 callgsubr
            -143 -46 -282 -313 -15 callgsubr
            -5 11 -1 vhcurveto
            return
          </CharString>
          <CharString index="38">
            vhcurveto
            -2 -3 -35 callsubr
            -2 2 return
          </CharString>
          <CharString index="39">
            0 11 -1 13 -5 vhcurveto
            -82 -135 -66 -126 -1 vvcurveto
            -21 -37 -170 -298 -94 vvcurveto
            -7 2 -12 12 19 65 39 149 112 vhcurveto
            120 159 83 191 124 14 -3 18 7 vvcurveto
            3 3 4 11 vhcurveto
            return
          </CharString>
          <CharString index="40">
            -10 5 -8 9 10 28 8 66 70 vhcurveto
            0 76 65 -57 callgsubr
            hvcurveto
            return
          </CharString>
          <CharString index="41">
            -46 callgsubr
            -41 -62 0 -1 -47 vhcurveto
            15 27 -93 callgsubr
            -40 -46 1 -46 hhcurveto
            -96 -84 -6 0 hvcurveto
            -4 -10 -3 -8 hvcurveto
            -6 5 -5 -11 vvcurveto
            -9 -4 -25 -31 -50 vhcurveto
            0 return
          </CharString>
          <CharString index="42">
            759 rmoveto
            3 3 -39 callsubr
            4 -6 2 -7 -11 -8 -2 -17 -18 vhcurveto
            -52 -49 -728 -716 0 0 -7 -6 -3 vvcurveto
            -2 3 -2 6 5 20 1 15 17 vhcurveto
            0 715 699 67 69 vhcurveto
            return
          </CharString>
          <CharString index="43">
            447 418 rmoveto
            3 4 2 3 2 vvcurveto
            6 -11 1 0 vhcurveto
            2 -20 -25 0 -26 hhcurveto
            -75 -84 -5 0 hvcurveto
            -13 -1 -8 -11 0 vvcurveto
            -10 -22 -53 -70 -4 vvcurveto
            -3 7 -2 6 3 2 0 1 1 vhcurveto
            55 59 61 36 71 1 rrcurveto
            7 10 -1 -5 -5 -108 -95 -67 -56 hvcurveto
            -11 -9 -229 -199 -72 12 callsubr
            -4 7 14 23 14 8 13 vhcurveto
            0 13 8 29 vhcurveto
            return
          </CharString>
          <CharString index="44">
            rrcurveto
            -61 -100 -12 -76 -46 vvcurveto
            -13 1 -56 23 33 61 95 0 vhcurveto
            73 107 193 355 0 vvcurveto
            return
          </CharString>
          <CharString index="45">
            34 32 65 141 0 vvcurveto
            8 18 3 11 6 0 callgsubr
            6 -6 -8 -8 -8 0 vhcurveto
            -57 -74 -57 -51 -40 -32 rrcurveto
            -26 -34 -41 -18 -51 hhcurveto
            -14 -21 1 16 17 callsubr
            return
          </CharString>
          <CharString index="46">
            rmoveto
            32 29 38 33 16 -9 11 -16 return
          </CharString>
          <CharString index="47">
            3 -54 callsubr
            return
          </CharString>
          <CharString index="48">
            -53 callgsubr
            -48 callgsubr
          </CharString>
          <CharString index="49">
            rmoveto
            -138 -151 -249 -57 -67 vhcurveto
            -41 -35 -25 -24 -9 hhcurveto
            -2 -1 1 3 20 57 118 0 hvcurveto
            17 36 96 183 107 184 rrcurveto
            2 -8 1 -8 -10 vvcurveto
            return
          </CharString>
          <CharString index="50">
            -28 callsubr
            hvcurveto
            -67 callgsubr
            return
          </CharString>
          <CharString index="51">
            -26 -24 -61 callgsubr
            return
          </CharString>
          <CharString index="52">
            9 44 -2 45 hhcurveto
            35 22 1 2 13 hvcurveto
            25 3 6 8 11 14 13 16 20 34 33 72 rrcurveto
            7 -2 2 -3 -15 -64 -62 -13 -13 vhcurveto
            -40 -41 -33 -20 -45 hhcurveto
            -10 -22 0 9 3 1 4 3 5 hvcurveto
            0 63 92 129 112 vhcurveto
            0 153 135 35 41 vhcurveto
            return
          </CharString>
          <CharString index="53">
            1 3 2 vvcurveto
            return
          </CharString>
          <CharString index="54">
            rmoveto
            1 1 0 1 1 vvcurveto
            3 -3 3 -4 -1 -2 40 callgsubr
            vhcurveto
            return
          </CharString>
          <CharString index="55">
            rmoveto
            -123 -59 -89 -26 -20 callgsubr
            2 return
          </CharString>
          <CharString index="56">
            -35 -28 18 -41 hhcurveto
            -56 -25 -33 0 hvcurveto
            0 -2 55 callsubr
            1 -3 6 3 3 54 callsubr
            9 4 14 vhcurveto
            return
          </CharString>
          <CharString index="57">
            -2 4 3 -1 2 hhcurveto
            5 1 4 4 6 -2 22 callsubr
            -16 28 -5 24 20 vvcurveto
            61 44 29 53 112 66 -89 -108 -236 -216 -304 -181 -12 -6 1 0 vhcurveto
            -7 1 -1 5 5 vvcurveto
            4 1 3 0 vhcurveto
            return
          </CharString>
          <CharString index="58">
            rmoveto
            36 36 44 37 20 -11 14 -19 -35 -32 -50 -35 -15 7 -15 18 hvcurveto
            endchar
          </CharString>
          <CharString index="59">
            34 6 94 126 10 vvcurveto
            9 -13 4 -15 -24 -27 -8 -16 -7 vhcurveto
            0 -46 -95 -28 vvcurveto
            -5 1 -3 3 vhcurveto
            return
          </CharString>
          <CharString index="60">
            6 -11 4 -12 -15 -4 -2 -17 -17 vhcurveto
            return
          </CharString>
          <CharString index="61">
            -4 6 0 5 21 17 3 11 11 vhcurveto
            return
          </CharString>
          <CharString index="62">
            5 -27 callgsubr
            return
          </CharString>
          <CharString index="63">
            129 -93 106 131 vvcurveto
            66 53 54 69 60 0 -55 -23 vhcurveto
            -3 -24 -3 -45 -7 1 callsubr
            17 22 58 89 30 vvcurveto
            42 -78 6 -36 -115 -139 -73 -133 vhcurveto
            return
          </CharString>
          <CharString index="64">
            0 vvcurveto
            19 32 55 104 24 vvcurveto
            6 -3 3 -5 -7 -10 -5 -6 -7 vhcurveto
            -34 -27 -47 -72 -38 -55 return
          </CharString>
          <CharString index="65">
            -94 89 -132 -123 vvcurveto
            -91 -59 -116 -108 -70 -27 55 65 38 9 51 27 68 vhcurveto
            0 3 8 2 vvcurveto
            7 -5 4 -6 -8 -10 -6 -14 -10 vhcurveto
            0 -84 -120 -35 -91 vhcurveto
            return
          </CharString>
          <CharString index="66">
            58 -79 -21 429 202 -50 50 return
          </CharString>
          <CharString index="67">
            211 181 258 160 81 return
          </CharString>
          <CharString index="68">
            -17 callgsubr
            vvcurveto
            return
          </CharString>
          <CharString index="69">
            -4 callsubr
            -4 -30 3 0 -31 -63 -27 14 callsubr
            1 -3 5 2 4 1 callgsubr
            endchar
          </CharString>
          <CharString index="70">
            3 2 95 114 48 hhcurveto
            return
          </CharString>
          <CharString index="71">
            -76 callsubr
            endchar
          </CharString>
          <CharString index="72">
            -2 -3 -3 vvcurveto
            return
          </CharString>
          <CharString index="73">
            rmoveto
            0 154 285 72 45 vhcurveto
            4 6 7 2 5 hhcurveto
            9 6 -6 -15 -16 -6 -29 -20 -50 hvcurveto
            0 -107 -256 -103 -15 -13 5 13 9 5 9 0 vhcurveto
            return
          </CharString>
          <CharString index="74">
            37 29 20 vhcurveto
            0 152 202 104 75 vhcurveto
            0 8 5 6 3 2 -1 -4 return
          </CharString>
          <CharString index="75">
            -160 -176 -228 -155 return
          </CharString>
          <CharString index="76">
            2 5 3 vvcurveto
            return
          </CharString>
          <CharString index="77">
            0 63 -4 75 vhcurveto
            19 hlineto
            -44 -77 -37 -65 -9 -21 rrcurveto
            0 -6 callgsubr
            return
          </CharString>
          <CharString index="78">
            -47 -86 -75 -134 -104 -182 -8 callsubr
            59 115 225 0 vhcurveto
            46 95 98 180 36 54 rrcurveto
            return
          </CharString>
          <CharString index="79">
            -21 -8 16 23 91 113 176 56 return
          </CharString>
          <CharString index="80">
            -4 3 -6 14 return
          </CharString>
          <CharString index="81">
            -15 callgsubr
            -7 13 24 callgsubr
            29 -6 46 291 228 273 224 186 -110 115 -173 return
          </CharString>
          <CharString index="82">
            0 0 -2 -4 -3 vvcurveto
            -3 2 -3 8 5 26 1 16 9 vhcurveto
            0 return
          </CharString>
          <CharString index="83">
            7 callgsubr
            81 -59 59 return
          </CharString>
          <CharString index="84">
            -2 -1 -2 -2 return
          </CharString>
          <CharString index="85">
            0 0 -5 -5 -4 vvcurveto
            -46 callsubr
            return
          </CharString>
          <CharString index="86">
            3 callsubr
            -2 -1 return
          </CharString>
          <CharString index="87">
            5 -5 0 -5 -3 -3 -29 callgsubr
            -15 -19 -21 -5 -20 hhcurveto
            return
          </CharString>
          <CharString index="88">
            hlineto
            -73 callsubr
            -138 hlineto
            return
          </CharString>
          <CharString index="89">
            4 4 2 return
          </CharString>
          <CharString index="90">
            hlineto
            -53 -95 33 callsubr
            7 -2 4 34 12 19 0 vhcurveto
            hintmask 01100000
            53 94 rlineto
            return
          </CharString>
          <CharString index="91">
            -2 callgsubr
            -5 callsubr
            22 callsubr
            return
          </CharString>
          <CharString index="92">
            2 -9 callgsubr
            return
          </CharString>
          <CharString index="93">
            -16 -10 -3 -5 hhcurveto
            return
          </CharString>
          <CharString index="94">
            3 -2 2 -4 -2 -3 -1 -1 -3 vhcurveto
            -80 -30 -103 -117 -83 vvcurveto
            -15 4 -9 0 vhcurveto
            -4 -2 return
          </CharString>
          <CharString index="95">
            -44 callgsubr
            hvcurveto
            hintmask 01100000
            -27 callsubr
            vhcurveto
            return
          </CharString>
          <CharString index="96">
            1 1 -1 return
          </CharString>
          <CharString index="97">
            -7 8 -2 13 40 6 19 0 vhcurveto
            return
          </CharString>
          <CharString index="98">
            rmoveto
            15 callsubr
            -20 callsubr
            return
          </CharString>
          <CharString index="99">
            rrcurveto
            0 -235 -387 -60 vvcurveto
            -7 5 -2 5 return
          </CharString>
          <CharString index="100">
            -46 -20 30 414 26 return
          </CharString>
          <CharString index="101">
            0 callgsubr
            4 return
          </CharString>
          <CharString index="102">
            1 3 3 return
          </CharString>
          <CharString index="103">
            2 4 -54 callsubr
            8 -11 1 -3 -62 return
          </CharString>
          <CharString index="104">
            -49 -55 -19 -61 -63 vhcurveto
            -100 -98 return
          </CharString>
          <CharString index="105">
            -5 vvcurveto
            -6 3 return
          </CharString>
          <CharString index="106">
            -4 vhcurveto
            0 return
          </CharString>
          <CharString index="107">
            4 callsubr
            11 return
          </CharString>
          <CharString index="108">
            vvcurveto
            -9 3 -3 4 5 7 5 0 vhcurveto
            return
          </CharString>
          <CharString index="109">
            -87 -113 -185 -52 return
          </CharString>
          <CharString index="110">
            -11 callsubr
            -1 return
          </CharString>
          <CharString index="111">
            -22 callsubr
            0 return
          </CharString>
          <CharString index="112">
            34 24 -1 25 hhcurveto
            29 26 1 7 8 hvcurveto
            0 22 14 28 76 vhcurveto
            return
          </CharString>
          <CharString index="113">
            -52 -167 -192 0 vvcurveto
            return
          </CharString>
          <CharString index="114">
            4 vhcurveto
            0 return
          </CharString>
          <CharString index="115">
            rlineto
            0 12 8 12 vvcurveto
            4 -1 8 -6 -2 -3 0 -2 -3 vhcurveto
            return
          </CharString>
          <CharString index="116">
            2 callsubr
            -28 callsubr
            return
          </CharString>
          <CharString index="117">
            -5 -4 vvcurveto
            return
          </CharString>
          <CharString index="118">
            28 56 4 22 8 -6 callsubr
            -3 -12 -30 -39 0 vhcurveto
            return
          </CharString>
          <CharString index="119">
            vvcurveto
            -4 1 return
          </CharString>
          <CharString index="120">
            0 vvcurveto
            11 22 3 13 7 vvcurveto
            return
          </CharString>
          <CharString index="121">
            -42 23 callgsubr
            -4 -4 vvcurveto
            -3 return
          </CharString>
          <CharString index="122">
            1 2 1 3 1 vvcurveto
            return
          </CharString>
          <CharString index="123">
            -23 5 -21 23 -21 return
          </CharString>
          <CharString index="124">
            3 1 3 0 hvcurveto
            return
          </CharString>
          <CharString index="125">
            -5 -2 callsubr
            return
          </CharString>
          <CharString index="126">
            -1 -3 -2 return
          </CharString>
          <CharString index="127">
            -21 22 -21 return
          </CharString>
          <CharString index="128">
            0 -2 -5 return
          </CharString>
          <CharString index="129">
            6 0 hvcurveto
            return
          </CharString>
          <CharString index="130">
            0 vvcurveto
            3 return
          </CharString>
          <CharString index="131">
            -1 0 vhcurveto
            return
          </CharString>
          <CharString index="132">
            vvcurveto
            -9 2 -9 9 5 9 4 9 11 vhcurveto
            0 return
          </CharString>
          <CharString index="133">
            4 13 -1 -6 51 callsubr
            hvcurveto
            endchar
          </CharString>
          <CharString index="134">
            -212 8 -21 return
          </CharString>
          <CharString index="135">
            -2 3 6 return
          </CharString>
          <CharString index="136">
            14 3 12 13 7 61 callgsubr
            1 -65 vhcurveto
            return
          </CharString>
          <CharString index="137">
            hstemhm
            163 121 return
          </CharString>
          <CharString index="138">
            -31 callsubr
            6 return
          </CharString>
          <CharString index="139">
            2 3 3 return
          </CharString>
          <CharString index="140">
            -18 callgsubr
            hintmask 10100000
            -7 return
          </CharString>
          <CharString index="141">
            -67 -14 -21 28 24 -1 -21 420 21 return
          </CharString>
          <CharString index="142">
            -7 15 -1 11 24 16 5 9 10 vhcurveto
            return
          </CharString>
          <CharString index="143">
            -12 7 -6 10 37 85 80 30 32 vhcurveto
            return
          </CharString>
          <CharString index="144">
            70 -25 43 48 callgsubr
            return
          </CharString>
          <CharString index="145">
            -50 60 callsubr
            return
          </CharString>
          <CharString index="146">
            42 callgsubr
            1 return
          </CharString>
          <CharString index="147">
            0 -3 0 return
          </CharString>
          <CharString index="148">
            -1 vhcurveto
            0 return
          </CharString>
          <CharString index="149">
            -49 -545 -21 544 22 13 -21 return
          </CharString>
          <CharString index="150">
            31 hstem
            140 71 275 75 vstem
            return
          </CharString>
          <CharString index="151">
            0 -2 -1 return
          </CharString>
          <CharString index="152">
            -2 -2 -2 return
          </CharString>
          <CharString index="153">
            -2 -3 -5 return
          </CharString>
          <CharString index="154">
            -2 2 7 return
          </CharString>
          <CharString index="155">
            0 vvcurveto
            2 return
          </CharString>
          <CharString index="156">
            70 -12 30 -3 -21 737 32 return
          </CharString>
          <CharString index="157">
            39 34 46 39 19 -9 15 -21 return
          </CharString>
          <CharString index="158">
            -1 40 callgsubr
            -2 return
          </CharString>
          <CharString index="159">
            -14 -39 rrcurveto
            0 -3 return
          </CharString>
          <CharString index="160">
            494 115 hstem
            return
          </CharString>
          <CharString index="161">
            1 1 7 callsubr
            return
          </CharString>
          <CharString index="162">
            10 callsubr
            -4 return
          </CharString>
          <CharString index="163">
            hstem
            -29 125 return
          </CharString>
          <CharString index="164">
            vvcurveto
            4 -3 1 return
          </CharString>
          <CharString index="165">
            0 vvcurveto
            4 return
          </CharString>
          <CharString index="166">
            32 34 vhcurveto
            return
          </CharString>
          <CharString index="167">
            vhcurveto
            0 -3 return
          </CharString>
          <CharString index="168">
            -6 -6 vvcurveto
            return
          </CharString>
        <CharString name=".notdef">
          -214 endchar
        </CharString>
        <CharString name="A">
          -41 callsubr
          289 -20 -105 callgsubr
          endchar
        </CharString>
        <CharString name="AE">
          398 -79 -21 86 26 317 202 -120 31 39 50 200 28 61 -20 7 callgsubr
          118 hintmask 1101111110000000
          760 414 rmoveto
          -66 callsubr
          -100 -155 -97 -165 vhcurveto
          9 31 10 30 10 30 rrcurveto
          -86 callgsubr
          hintmask 1110011110000000
          -72 callgsubr
          hintmask 1101111110000000
          54 7 78 64 37 35 -24 -35 29 vhcurveto
          -90 callsubr
          -75 callsubr
          32 vvcurveto
          -1 26 28 0 27 -97 callsubr
          -261 224 -92 callsubr
          endchar
        </CharString>
        <CharString name="Aacute">
          -41 callsubr
          420 -20 -105 callgsubr
          272 298 -100 callsubr
        </CharString>
        <CharString name="Acircumflex">
          -41 callsubr
          295 115 -105 callgsubr
          177 270 -104 callgsubr
        </CharString>
        <CharString name="Adieresis">
          -41 callsubr
          315 98 -24 callsubr
          122 28 callgsubr
          -85 callsubr
          49 208 -94 callsubr
        </CharString>
        <CharString name="Agrave">
          -41 callsubr
          435 -20 -105 callgsubr
          177 219 -97 callgsubr
        </CharString>
        <CharString name="Aring">
          -41 callsubr
          311 124 -24 callsubr
          217 40 42 32 -85 callsubr
          153 204 -58 callgsubr
        </CharString>
        <CharString name="Atilde">
          -41 callsubr
          316 70 -25 43 2 -20 -24 callsubr
          hintmask 1100011100000000
          799 926 -9 callsubr
          hintmask 1100101100000000
          -51 callsubr
          hintmask 1011001010000000
          -4 callgsubr
          -643 -445 -90 callgsubr
          hintmask 1101001100000000
          -100 callgsubr
          hintmask 1011001100000000
          -93 callsubr
          endchar
        </CharString>
        <CharString name="B">
          55 -27 27 -25 -21 796 24 hstemhm
          74 28 10 64 221 71 57 72 hintmask 10111110
          185 -27 rmoveto
          152 131 153 151 108 -85 41 0 hvcurveto
          -4 2 -2 1 2 vvcurveto
          3 7 3 0 vhcurveto
          95 20 118 60 115 vvcurveto
          140 -195 2 -13 -154 -123 -73 -88 -54 60 -23 0 vhcurveto
          -1 2 4 -1 3 hhcurveto
          46 callgsubr
          5 5 -4 8 0 hvcurveto
          -5 11 -2 11 11 vvcurveto
          80 76 84 127 127 19 -66 -41 -100 -94 -90 -103 vhcurveto
          -12 -2 -2 -7 -5 12 callsubr
          -4 0 vhcurveto
          64 -15 18 -46 -47 vvcurveto
          -95 -98 -228 -129 -43 -25 33 44 60 37 71 0 vhcurveto
          56 126 124 202 0 vvcurveto
          62 107 9 40 0 vvcurveto
          1 6 1 5 3 61 callgsubr
          2 -3 -8 -15 -15 0 vhcurveto
          -41 -39 -39 -56 -38 -55 rrcurveto
          -169 -242 -133 -293 0 vvcurveto
          -4 -9 -6 -20 -10 vvcurveto
          hintmask 01111110
          -7 2 -5 5 4 7 60 callgsubr
          vhcurveto
          0 51 45 53 89 vhcurveto
          0 3 4 3 2 2 -2 -6 23 callgsubr
          -9 -13 vvcurveto
          hintmask 10111110
          -63 37 -39 74 vhcurveto
          endchar
        </CharString>
        <CharString name="C">
          44 -28 67 701 25 15 -20 hstemhm
          28 109 410 118 hintmask 11011000
          -59 callgsubr
          hintmask 10111000
          13 -11 1 24 callgsubr
          -1 0 -7 -46 -21 -17 0 vhcurveto
          30 callgsubr
          hintmask 11011000
          -16 callgsubr
          145 144 159 109 64 vhcurveto
          endchar
        </CharString>
        <CharString name="Ccedilla">
          44 -128 21 79 67 -45 -21 767 25 15 -20 hstemhm
          28 109 -25 25 410 118 hintmask 11010101
          -59 callgsubr
          hintmask 11001101
          13 -11 1 -3 vhcurveto
          -8 hlineto
          -46 -21 -17 0 hvcurveto
          30 callgsubr
          hintmask 11010101
          -16 callgsubr
          vhcurveto
          hintmask 10110011
          42 callgsubr
          4 hhcurveto
          -2 -1 -1 -1 41 callsubr
          -19 -13 -13 -37 callgsubr
          130 25 124 140 58 99 rrcurveto
          endchar
        </CharString>
        <CharString name="D">
          77 -24 30 737 43 callsubr
          278 774 rmoveto
          -57 -81 -13 -68 -62 58 -56 21 -11 hvcurveto
          -50 callsubr
          46 126 182 322 -12 callgsubr
          -39 -39 -39 -57 -36 -54 rrcurveto
          -174 -258 -85 -211 -26 callsubr
          vhcurveto
          endchar
        </CharString>
        <CharString name="E">
          -21 callgsubr
          hstem
          413 -42 callgsubr
          vhcurveto
          -150 hlineto
          15 26 -93 callgsubr
          -45 -52 1 -51 hhcurveto
          -111 -103 -6 0 hvcurveto
          0 -15 -2 -10 vvcurveto
          25 callgsubr
          7 -1 callsubr
          27 -12 -33 vvcurveto
          -13 -4 -16 -11 -20 vhcurveto
          0 -54 -84 -67 -110 vhcurveto
          -51 hlineto
          -12 -14 -10 -11 -4 3 -4 10 hvcurveto
          0 18 -1 27 vhcurveto
          -80 -132 -92 -160 -43 -97 rrcurveto
          -3 -6 -1 -6 -4 vvcurveto
          -13 12 24 callsubr
          -5 46 63 -2 59 -97 callsubr
          endchar
        </CharString>
        <CharString name="Eacute">
          -21 callgsubr
          157 -20 hstem
          413 -42 callgsubr
          vhcurveto
          -150 hlineto
          15 26 -93 callgsubr
          -45 -52 1 -51 hhcurveto
          -111 -103 -6 0 hvcurveto
          0 -15 -2 -10 vvcurveto
          25 callgsubr
          7 -1 callsubr
          27 -12 -33 vvcurveto
          -13 -4 -16 -11 -20 vhcurveto
          0 -54 -84 -67 -110 vhcurveto
          -51 hlineto
          -12 -14 -10 -11 -4 3 -4 10 hvcurveto
          0 18 -1 27 vhcurveto
          -80 -132 -92 -160 -43 -97 rrcurveto
          -3 -6 -1 -6 -4 vvcurveto
          -13 12 24 callsubr
          -5 46 63 -2 59 -97 callsubr
          239 487 -100 callsubr
        </CharString>
        <CharString name="Ecircumflex">
          -21 callgsubr
          29 115 hstem
          413 -42 callgsubr
          vhcurveto
          -150 hlineto
          15 26 -93 callgsubr
          -45 -52 1 -51 hhcurveto
          -111 -103 -6 0 hvcurveto
          0 -15 -2 -10 vvcurveto
          25 callgsubr
          7 -1 callsubr
          27 -12 -33 vvcurveto
          -13 -4 -16 -11 -20 vhcurveto
          0 -54 -84 -67 -110 vhcurveto
          -51 hlineto
          -12 -14 -10 -11 -4 3 -4 10 hvcurveto
          0 18 -1 27 vhcurveto
          -80 -132 -92 -160 -43 -97 rrcurveto
          -3 -6 -1 -6 -4 vvcurveto
          -13 12 24 callsubr
          -5 46 63 -2 59 -97 callsubr
          148 456 -104 callgsubr
        </CharString>
        <CharString name="Edieresis">
          -21 callgsubr
          40 98 hstem
          405 28 callgsubr
          vstem
          413 -42 callgsubr
          vhcurveto
          -150 hlineto
          15 26 -93 callgsubr
          -45 -52 1 -51 hhcurveto
          -111 -103 -6 0 hvcurveto
          0 -15 -2 -10 vvcurveto
          25 callgsubr
          7 -1 callsubr
          27 -12 -33 vvcurveto
          -13 -4 -16 -11 -20 vhcurveto
          0 -54 -84 -67 -110 vhcurveto
          -51 hlineto
          -12 -14 -10 -11 -4 3 -4 10 hvcurveto
          0 18 -1 27 vhcurveto
          -80 -132 -92 -160 -43 -97 rrcurveto
          -3 -6 -1 -6 -4 vvcurveto
          -13 12 24 callsubr
          -5 46 63 -2 59 -97 callsubr
          17 385 -94 callsubr
        </CharString>
        <CharString name="Egrave">
          -21 callgsubr
          152 -20 hstem
          413 -42 callgsubr
          vhcurveto
          -150 hlineto
          15 26 -93 callgsubr
          -45 -52 1 -51 hhcurveto
          -111 -103 -6 0 hvcurveto
          0 -15 -2 -10 vvcurveto
          25 callgsubr
          7 -1 callsubr
          27 -12 -33 vvcurveto
          -13 -4 -16 -11 -20 vhcurveto
          0 -54 -84 -67 -110 vhcurveto
          -51 hlineto
          -12 -14 -10 -11 -4 3 -4 10 hvcurveto
          0 18 -1 27 vhcurveto
          -80 -132 -92 -160 -43 -97 rrcurveto
          -3 -6 -1 -6 -4 vvcurveto
          -13 12 24 callsubr
          -5 46 63 -2 59 -97 callsubr
          171 388 -97 callgsubr
        </CharString>
        <CharString name="Eth">
          77 -24 30 300 45 392 43 callsubr
          304 306 -66 callgsubr
          -98 hlineto
          38 69 30 53 -12 callgsubr
          -79 -87 -60 -98 -56 -91 rrcurveto
          -77 -62 callgsubr
          69 hlineto
          -101 -174 -50 -124 -26 callsubr
          -57 -81 -13 -68 -62 58 -56 21 -11 vhcurveto
          -50 callsubr
          24 65 59 117 53 99 rrcurveto
          endchar
        </CharString>
        <CharString name="Euro">
          126 -21 28 369 29 43 30 262 27 hstem
          129 102 vstem
          484 449 rmoveto
          5 callgsubr
          -50 -49 -1 -52 hhcurveto
          142 81 110 121 95 hhcurveto
          16 38 -5 -51 20 hvcurveto
          0 3 -10 7 3 4 2 6 4 vhcurveto
          9 13 4 13 10 61 callgsubr
          5 -2 3 vhcurveto
          27 -17 -55 8 -36 hhcurveto
          -150 -148 -134 -156 -96 hvcurveto
          -53 34 callgsubr
          48 hlineto
          -23 -43 rlineto
          -55 34 callgsubr
          54 hlineto
          -34 -77 -20 -76 -63 vvcurveto
          -94 47 -87 128 25 58 3 27 53 vhcurveto
          22 11 12 17 29 61 callgsubr
          2 -3 -7 -13 -13 0 vhcurveto
          -46 -47 -46 -8 -26 hhcurveto
          -69 -30 56 68 64 25 90 41 91 hvcurveto
          47 48 0 1 50 hvcurveto
          5 callgsubr
          -48 -49 -1 -49 hhcurveto
          21 43 rlineto
          50 50 0 1 52 hvcurveto
          endchar
        </CharString>
        <CharString name="F">
          -146 -140 -21 575 29 288 28 hstem
          412 59 callgsubr
          15 1 13 15 8 vvcurveto
          1 0 1 14 callgsubr
          -51 -52 -1 -54 hhcurveto
          104 194 53 67 0 vvcurveto
          28 21 41 0 15 hhcurveto
          66 14 -43 -35 -25 -7 -21 0 hvcurveto
          -9 4 -3 4 5 6 3 2 1 vhcurveto
          32 48 35 82 48 callsubr
          4 1 4 3 vvcurveto
          13 -13 0 -3 vhcurveto
          4 -45 -52 1 -50 hhcurveto
          -109 -101 -6 0 hvcurveto
          -5 -10 -5 -7 25 callgsubr
          7 -4 hvcurveto
          0 23 -8 -35 vvcurveto
          -18 -6 -25 -18 -33 vhcurveto
          0 -42 -71 -57 -98 vhcurveto
          -51 hlineto
          -11 -12 -11 -9 -5 4 -4 11 hvcurveto
          42 hlineto
          -99 -173 -134 -239 -41 -102 rrcurveto
          0 -12 -29 -18 vvcurveto
          -10 4 -3 6 5 5 2 4 6 vhcurveto
          127 80 85 222 0 vvcurveto
          50 106 44 89 38 72 rrcurveto
          155 hlineto
          endchar
        </CharString>
        <CharString name="G">
          44 -31 92 -87 -21 601 211 -27 27 10 -20 hstemhm
          1 115 162 48 233 111 hintmask 10010111
          505 351 rmoveto
          28 48 22 29 0 vvcurveto
          5 6 -31 callsubr
          7 -8 1 0 vhcurveto
          4 -23 -25 1 -23 hhcurveto
          -37 -30 -3 0 hvcurveto
          -12 -1 -2 -5 -5 -13 14 3 -31 vvcurveto
          -34 -25 -37 0 vhcurveto
          -55 -91 -73 -75 -41 -41 rrcurveto
          -15 -15 -48 -46 -22 hhcurveto
          -16 -5 19 24 199 244 435 156 18 25 -8 -24 -4 -1 12 callgsubr
          hvcurveto
          1 -29 -88 -37 vvcurveto
          hintmask 10100111
          -12 3 -4 5 26 108 173 33 vhcurveto
          hintmask 10001111
          14 -14 1 -16 -34 -22 -12 0 vhcurveto
          -6 -4 -5 -1 -3 hhcurveto
          hintmask 10100111
          -5 -15 9 -36 hhcurveto
          -260 -255 -462 -246 -42 9 -46 38 32 90 39 201 164 hvcurveto
          0 4 3 2 3 callsubr
          -1 19 callsubr
          24 callgsubr
          -61 -92 -79 vvcurveto
          hintmask 01100111
          -33 18 -46 21 4 5 3 11 vhcurveto
          4 67 109 203 66 114 rrcurveto
          endchar
        </CharString>
        <CharString name="H">
          125 -19 -21 471 205 -41 41 142 -20 hstemhm
          74 60 291 33 hintmask 11011100
          845 748 rmoveto
          3 4 7 7 5 vvcurveto
          4 -4 2 -11 -100 -97 -120 -144 -71 vhcurveto
          -43 -87 -60 -109 0 vvcurveto
          -6 -2 45 callsubr
          20 callgsubr
          10 0 96 -27 82 -48 57 hvcurveto
          43 94 30 80 39 vvcurveto
          13 -5 5 -5 -5 -6 -5 -5 -5 vhcurveto
          0 -44 -78 -55 -97 vhcurveto
          28 -42 -50 15 -57 hhcurveto
          -63 -45 -31 -58 -38 37 -78 24 4 3 3 6 3 -1 5 -2 6 hvcurveto
          -3 11 -2 13 14 vvcurveto
          hintmask 10111100
          62 37 41 62 33 28 -9 -15 24 vhcurveto
          -190 -336 -41 -72 -81 -142 -4 -38 rlinecurve
          0 -1 -4 -5 vvcurveto
          -8 4 -3 5 45 87 139 28 17 vhcurveto
          66 107 84 153 62 130 rrcurveto
          37 -52 17 -71 -62 vvcurveto
          -45 -8 -52 -26 -54 vhcurveto
          0 -53 -108 -72 vvcurveto
          -12 1 -32 15 11 21 18 87 39 vhcurveto
          40 88 220 451 160 144 rrcurveto
          endchar
        </CharString>
        <CharString name="I">
          -7 callgsubr
          hstem
          -96 callsubr
          endchar
        </CharString>
        <CharString name="Iacute">
          -7 callgsubr
          133 -20 hstem
          -96 callsubr
          43 148 -100 callsubr
        </CharString>
        <CharString name="Icircumflex">
          -7 callgsubr
          24 115 hstem
          -96 callsubr
          -36 136 -104 callgsubr
        </CharString>
        <CharString name="Idieresis">
          -7 callgsubr
          32 98 hstemhm
          216 217 -86 28 callgsubr
          hintmask 11110100
          -96 callsubr
          -150 62 -61 callsubr
          hvcurveto
          hintmask 11101100
          -92 callgsubr
        </CharString>
        <CharString name="Igrave">
          -7 callgsubr
          143 -20 hstem
          -96 callsubr
          -9 64 -97 callgsubr
        </CharString>
        <CharString name="J">
          -95 -172 -21 936 27 hstem
          580 740 rmoveto
          11 5 5 4 4 vvcurveto
          16 -83 1 -11 -121 -108 -51 -106 -24 callgsubr
          7 callsubr
          71 158 107 9 23 -1 -9 -23 callsubr
          19 callgsubr
          -103 -57 -212 -389 vhcurveto
          0 -189 -374 -100 -75 vhcurveto
          0 -15 -10 -7 vvcurveto
          -4 5 -4 18 67 58 60 43 37 vhcurveto
          47 56 86 160 66 130 rrcurveto
          0 220 442 86 42 vhcurveto
          endchar
        </CharString>
        <CharString name="K">
          68 -31 -21 748 78 hstem
          333 81 vstem
          663 696 rmoveto
          29 6 -28 0 hvcurveto
          -6 1 3 -2 3 hhcurveto
          19 26 47 34 18 -8 15 -20 -101 -350 -371 12 12 hvcurveto
          -6 -6 -4 -2 -2 hhcurveto
          -3 0 3 3 4 1 22 callsubr
          55 114 128 205 58 callsubr
          7 1 5 4 vvcurveto
          11 -11 -29 callgsubr
          -54 -2 -41 -63 0 vvcurveto
          0 -76 -105 -105 -183 vhcurveto
          -68 -118 -142 -280 52 callsubr
          -7 -6 vvcurveto
          -6 2 -5 9 48 80 108 58 27 vhcurveto
          0 45 93 70 91 vhcurveto
          44 58 56 67 60 48 rrcurveto
          0 8 8 5 2 2 -2 -5 12 callgsubr
          -2 -8 vhcurveto
          -20 -61 -45 -147 -127 vvcurveto
          -58 8 -45 17 -30 vhcurveto
          -31 18 24 -16 14 hhcurveto
          6 4 4 7 3 -1 3 -1 5 hvcurveto
          0 -8 24 62 vvcurveto
          110 49 307 45 117 vhcurveto
          3 8 11 13 18 15 rrcurveto
          9 10 70 61 43 hhcurveto
          endchar
        </CharString>
        <CharString name="L">
          21 -22 29 762 -47 callgsubr
          57 150 233 420 -43 callsubr
          rrcurveto
          -200 -294 -126 -306 -50 callgsubr
          endchar
        </CharString>
        <CharString name="Lslash">
          21 -22 29 319 45 398 -47 callgsubr
          25 66 59 118 58 112 rrcurveto
          103 hlineto
          29 callgsubr
          -88 hlineto
          65 124 59 105 -43 callsubr
          -54 -79 -48 -80 -42 -74 rrcurveto
          -88 37 callgsubr
          73 hlineto
          -100 -182 -57 -140 -50 callgsubr
          endchar
        </CharString>
        <CharString name="M">
          205 -39 -21 842 -20 hstemhm
          344 96 0 65 hintmask 11100000
          864 742 rmoveto
          6 8 3 7 5 vvcurveto
          6 -4 3 -8 -4 -4 -1 -1 -5 vhcurveto
          -158 -44 -326 -423 0 vvcurveto
          -8 -6 -5 -3 -3 hhcurveto
          -5 -1 10 5 53 31 372 0 hvcurveto
          12 -1 39 -14 -22 -41 -117 0 0 -18 -32 -37 -63 vhcurveto
          0 -289 -477 -22 -119 vhcurveto
          0 -1 -6 -3 vvcurveto
          -7 2 -3 4 4 6 3 6 7 vhcurveto
          0 71 46 77 201 vhcurveto
          34 89 74 163 63 93 10 callgsubr
          -5 -35 -285 -17 -148 vhcurveto
          0 0 -21 10 5 9 6 18 12 vhcurveto
          0 251 352 133 108 vhcurveto
          4 5 4 1 3 hhcurveto
          3 1 -2 -3 1 hvcurveto
          -2 19 callsubr
          -4 vhcurveto
          -88 -152 -143 -247 -127 vvcurveto
          -73 40 -35 17 7 2 7 9 vhcurveto
          hintmask 11010000
          8 -1 5 5 vvcurveto
          25 8 85 95 197 vhcurveto
          0 139 293 117 168 vhcurveto
          endchar
        </CharString>
        <CharString name="N">
          51 -30 -21 838 -20 hstem
          282 92 vstem
          -77 callgsubr
          endchar
        </CharString>
        <CharString name="Ntilde">
          51 -30 -21 838 37 callsubr
          282 92 hintmask 11001000
          -77 callgsubr
          25 259 rmoveto
          15 callsubr
          hintmask 10011000
          -20 callsubr
          hintmask 10101000
          -51 callsubr
          hintmask 11001000
          -4 callgsubr
          endchar
        </CharString>
        <CharString name="O">
          -14 callgsubr
          -95 callgsubr
          endchar
        </CharString>
        <CharString name="OE">
          382 -30 47 -31 31 394 31 224 93 -28 28 5 -20 hstemhm
          0 102 440 101 0 32 hintmask 1011001100000000
          519 666 rmoveto
          14 9 -10 -21 -102 -34 -99 -41 -86 hvcurveto
          -32 -53 -32 -56 -29 -52 rrcurveto
          -83 -57 -78 -87 -80 -91 callsubr
          80 76 37 55 67 vhcurveto
          -16 -38 rlineto
          -3 -8 -1 -6 -4 vvcurveto
          -13 10 24 callsubr
          hintmask 0110101010000000
          -5 47 45 -1 75 -97 callsubr
          -66 callsubr
          -3 -5 -3 -4 vhcurveto
          2 16 2 17 15 vvcurveto
          hintmask 1010011100000000
          -82 callsubr
          hintmask 1011001100000000
          -37 callsubr
          endchar
        </CharString>
        <CharString name="Oacute">
          -14 callgsubr
          121 -20 -95 callgsubr
          84 204 -100 callsubr
        </CharString>
        <CharString name="Ocircumflex">
          -14 callgsubr
          22 115 -95 callgsubr
          43 202 -104 callgsubr
        </CharString>
        <CharString name="Odieresis">
          -14 callgsubr
          20 98 hstemhm
          0 102 323 86 31 101 -57 86 hintmask 11111100
          -99 callsubr
          -69 118 -61 callsubr
          -71 callsubr
          hintmask 11111010
          -83 callgsubr
        </CharString>
        <CharString name="Ograve">
          -14 callgsubr
          147 -20 -95 callgsubr
          72 136 -97 callgsubr
        </CharString>
        <CharString name="Oslash">
          -14 callgsubr
          28 -20 hstem
          0 102 vstem
          752 776 rmoveto
          -15 callsubr
          -47 callsubr
          -57 -58 rlineto
          29 -7 -17 20 -30 hhcurveto
          -91 -115 -122 -86 -29 hvcurveto
          -69 callgsubr
          -37 callsubr
          14 9 -10 -21 -7 0 -6 -1 -6 hvcurveto
          -125 -129 -176 -180 -133 -135 33 214 171 214 56 54 rrcurveto
          -83 callsubr
          -10 0 -9 1 -9 vhcurveto
          -47 -49 -31 -31 -22 callsubr
          34 34 rlineto
          -28 12 23 -20 39 hhcurveto
          -40 callsubr
          hvcurveto
          5 9 74 153 5 113 rrcurveto
          -219 -396 rmoveto
          -92 -53 -104 -158 -108 hhcurveto
          -49 -8 52 34 hvcurveto
          7 vlineto
          433 443 -17 -106 -48 -100 -46 -80 rlinecurve
          endchar
        </CharString>
        <CharString name="Otilde">
          -14 callgsubr
          23 37 callsubr
          0 102 440 101 hintmask 11001110
          695 866 -9 callsubr
          hintmask 11010110
          -51 callsubr
          hintmask 11100110
          -4 callgsubr
          -176 -200 -55 callgsubr
          -92 -53 -104 -158 -108 -91 callsubr
          -40 callsubr
          vhcurveto
          -88 callgsubr
          endchar
        </CharString>
        <CharString name="P">
          -41 -36 -21 384 27 379 26 hstem
          112 71 357 83 vstem
          244 323 rmoveto
          4 4 callgsubr
          2 hhcurveto
          2 1 -1 0 hvcurveto
          163 207 84 186 126 -147 36 -114 -30 callgsubr
          87 73 81 -35 -88 -111 -98 -145 -176 -2 -2 0 3 1 0 1 1 2 vhcurveto
          85 163 75 128 0 vvcurveto
          11 callgsubr
          -76 -123 -105 -184 vhcurveto
          -68 -117 -94 -182 52 callsubr
          61 callsubr
          -7 4 -4 8 29 77 57 154 75 vhcurveto
          30 61 25 56 29 52 rrcurveto
          endchar
        </CharString>
        <CharString name="Q">
          82 -119 67 22 47 649 98 hstem
          0 102 78 48 314 101 vstem
          519 666 -55 callgsubr
          -41 -71 -71 -111 -81 -47 rrcurveto
          -2 19 -1 21 21 vvcurveto
          84 16 87 0 vhcurveto
          1 7 0 4 3 vvcurveto
          4 -1 1 -2 -4 -6 -5 -7 24 callgsubr
          -21 -50 -14 -77 vhcurveto
          -8 -42 -6 -46 -43 vvcurveto
          -2 -7 -7 0 -7 -91 callsubr
          32 32 6 11 30 vhcurveto
          -48 3 11 -58 53 hhcurveto
          54 48 72 0 hvcurveto
          1 -9 callgsubr
          4 -3 2 -3 -2 -3 -1 -2 -3 vhcurveto
          -9 -17 -15 -5 -12 hhcurveto
          -31 -17 27 37 -9 hvcurveto
          144 79 118 176 61 121 rrcurveto
          -88 callgsubr
          endchar
        </CharString>
        <CharString name="R">
          65 -35 -21 796 25 hstem
          108 71 126 77 162 90 vstem
          355 -12 rmoveto
          -3 1 24 -41 64 hhcurveto
          11 14 1 7 2 -1 3 -4 4 hvcurveto
          -80 74 -2 329 44 vvcurveto
          6 7 5 0 vhcurveto
          87 22 158 90 109 vvcurveto
          108 -163 17 -83 -139 -141 -50 -96 -45 40 -31 22 -13 vhcurveto
          -4 6 9 -5 8 hhcurveto
          4 2 2 4 3 -2 5 -2 5 hvcurveto
          -11 19 -5 19 18 vvcurveto
          98 118 46 86 64 97 -24 -85 -106 -122 -85 -104 -11 vhcurveto
          0 -11 0 -1 -13 vhcurveto
          0 -1 -24 -37 vvcurveto
          -100 6 -196 44 -71 vhcurveto
          -227 171 rmoveto
          58 134 202 359 3 5 rrcurveto
          6 11 2 6 4 vvcurveto
          5 -4 3 -7 -18 -39 -20 -50 -36 vhcurveto
          0 -70 -104 -108 -194 vhcurveto
          -66 -118 -99 -190 52 callsubr
          61 callsubr
          -9 4 -4 7 4 4 1 2 7 callsubr
          96 40 74 170 vhcurveto
          endchar
        </CharString>
        <CharString name="S">
          53 -25 27 734 28 43 callgsubr
          89 88 hintmask 11101100
          -10 callgsubr
          hintmask 11110100
          -44 callsubr
          hintmask 11101100
          -42 callsubr
          endchar
        </CharString>
        <CharString name="Scaron">
          53 -25 27 734 28 43 115 43 callgsubr
          12 165 -88 88 hintmask 11110110
          -10 callgsubr
          hintmask 11111001
          -44 callsubr
          hintmask 11110110
          -42 callsubr
          557 771 -87 callgsubr
        </CharString>
        <CharString name="T">
          7 -22 49 640 68 -22 22 -22 43 hstemhm
          0 100 -1 67 hintmask 11001000
          429 327 rmoveto
          -7 -3 -9 0 hvcurveto
          -115 -39 -95 -176 -124 hhcurveto
          -49 -12 45 44 251 269 235 64 26 hvcurveto
          12 5 3 6 3 vvcurveto
          5 -5 1 -5 -7 -5 24 callsubr
          -57 -13 -79 -49 -74 -70 rrcurveto
          -1 1 -1 0 1 vvcurveto
          hintmask 10100100
          0 -48 35 49 vvcurveto
          76 89 36 60 vhcurveto
          hintmask 11001000
          93 80 -46 89 hhcurveto
          57 47 31 41 25 hvcurveto
          3 5 1 4 2 vvcurveto
          3 -2 1 -3 -3 -4 24 callsubr
          -14 -19 -31 -4 -30 hhcurveto
          hintmask 10010100
          -72 -53 21 -81 hhcurveto
          -191 -122 -98 -65 -52 60 -33 44 -5 hvcurveto
          hintmask 11001000
          -108 -105 -95 -149 -141 vvcurveto
          hintmask 11000100
          -70 27 -60 72 141 141 145 110 57 vhcurveto
          0 14 23 26 vvcurveto
          18 -12 27 -11 vhcurveto
          endchar
        </CharString>
        <CharString name="Thorn">
          27 -36 -21 176 27 379 26 134 -20 hstem
          -4 71 357 83 vstem
          -21 -57 rmoveto
          26 68 49 127 69 hvcurveto
          162 1 203 85 184 vvcurveto
          84 -67 44 -78 20 vhcurveto
          61 115 rlineto
          11 callgsubr
          -16 -25 -22 -37 vhcurveto
          2 -15 -14 0 -14 hhcurveto
          -30 callgsubr
          92 vhcurveto
          -71 -114 -198 -350 -36 -95 rrcurveto
          -1 -3 -1 10 callsubr
          -6 2 -5 9 vhcurveto
          369 567 rmoveto
          43 -17 33 -35 -56 vvcurveto
          -110 -96 -143 -172 -3 vhcurveto
          2 2 0 3 2 3 rrcurveto
          endchar
        </CharString>
        <CharString name="U">
          2 callgsubr
          770 -20 -101 callsubr
          endchar
        </CharString>
        <CharString name="Uacute">
          2 callgsubr
          905 -20 -101 callsubr
          340 966 -100 callsubr
        </CharString>
        <CharString name="Ucircumflex">
          2 callgsubr
          810 115 -101 callsubr
          264 968 -104 callgsubr
        </CharString>
        <CharString name="Udieresis">
          2 callgsubr
          799 98 hstem
          291 57 127 28 callgsubr
          vstem
          351 -96 rmoveto
          6 -3 12 12 vvcurveto
          73 56 127 0 vhcurveto
          89 220 185 285 8 callgsubr
          36 27 48 0 vvcurveto
          5 8 1 6 39 callgsubr
          3 -10 -20 -34 -10 -15 -16 vhcurveto
          -47 -43 -108 -178 0 vvcurveto
          -216 -305 -96 -72 0 vvcurveto
          -13 -17 -11 -5 -7 hhcurveto
          -11 -3 12 10 9 2 9 0 hvcurveto
          50 181 183 300 0 vvcurveto
          47 72 11 24 58 callsubr
          7 31 callsubr
          -4 3 -11 -22 -44 -18 -46 -33 vhcurveto
          -23 -32 -296 -421 -200 vvcurveto
          -28 8 -25 25 35 120 78 247 190 vhcurveto
          0 7 39 callsubr
          44 callsubr
          0 -3 -2 24 callgsubr
          -97 -157 -131 vvcurveto
          -44 10 -40 29 -31 vhcurveto
          -1 2 5 -3 5 hhcurveto
          5 4 3 8 hvcurveto
          149 875 -94 callsubr
        </CharString>
        <CharString name="Ugrave">
          2 callgsubr
          910 -20 -101 callsubr
          240 877 -97 callgsubr
        </CharString>
        <CharString name="V">
          -85 -17 -21 809 -20 hstem
          551 126 vstem
          677 749 rmoveto
          16 -12 6 -17 -29 -68 -14 -42 vhcurveto
          -15 -92 -95 -146 -98 -128 rrcurveto
          -110 -143 -83 -79 49 callgsubr
          -9 -1 16 0 hvcurveto
          41 256 146 361 0 vvcurveto
          1 -60 callsubr
          7 -6 3 -8 -21 -41 -22 -44 -22 vhcurveto
          0 -101 -197 -67 -264 vhcurveto
          -21 -82 -27 -124 -55 vvcurveto
          -13 5 -6 7 5 6 2 6 7 vhcurveto
          0 85 61 147 173 vhcurveto
          163 194 251 271 80 vvcurveto
          endchar
        </CharString>
        <CharString name="W">
          198 -15 -21 806 -20 hstem
          835 122 vstem
          379 349 rmoveto
          -34 -108 -44 -158 -9 -100 rrcurveto
          -6 1 -13 10 4 6 2 6 8 vhcurveto
          0 81 62 145 173 vhcurveto
          162 194 248 272 79 vvcurveto
          16 -15 2 -10 -22 -32 -9 -6 -12 vhcurveto
          -29 -14 -2 -20 -4 vvcurveto
          -56 -111 -184 -98 -126 vhcurveto
          -122 -156 -65 -65 0 vvcurveto
          -7 -6 -5 -2 -3 hhcurveto
          -8 -1 15 0 hvcurveto
          45 256 149 360 0 0 2 5 4 vvcurveto
          5 -3 4 -7 vhcurveto
          0 -52 0 -33 -66 vhcurveto
          0 -36 -70 -43 -113 vhcurveto
          0 -28 -64 -33 -44 vhcurveto
          -114 -153 -118 -131 49 callgsubr
          -6 -1 10 4 81 139 413 54 118 hvcurveto
          2 5 2 5 5 vvcurveto
          5 -3 4 -8 vhcurveto
          0 -51 -1 -34 -65 vhcurveto
          0 -102 -200 -71 -267 vhcurveto
          -21 -80 -24 -97 -6 -77 rrcurveto
          -6 0 -13 10 4 6 2 6 9 vhcurveto
          0 91 82 145 173 vhcurveto
          32 38 34 44 36 45 rrcurveto
          0 5 -18 callsubr
          1 -1 -2 -1 0 -3 -1 -2 vhcurveto
          endchar
        </CharString>
        <CharString name="X">
          69 -27 -21 827 -20 hstem
          292 88 vstem
          85 218 rmoveto
          -10 -7 -144 -136 -109 vvcurveto
          -6 1 -8 7 15 41 34 162 122 vhcurveto
          0 66 96 112 120 vhcurveto
          -2 -44 -1 -45 -44 vvcurveto
          -92 6 -87 17 -66 vhcurveto
          -13 3 11 -4 13 hhcurveto
          19 74 27 28 9 -8 3 0 hvcurveto
          -36 16 -11 110 130 vvcurveto
          52 2 56 2 54 vhcurveto
          88 84 106 87 118 70 rrcurveto
          15 9 94 45 20 vvcurveto
          6 -8 4 -22 -21 -31 -5 -19 -39 vhcurveto
          0 -63 -33 -235 -227 vhcurveto
          7 115 10 101 4 37 rrcurveto
          1 9 0 5 1 vvcurveto
          11 -4 5 -7 -17 -34 -33 -42 -13 vhcurveto
          -9 -36 -16 -120 -10 -137 -60 -57 -105 -96 -48 -40 rrcurveto
          endchar
        </CharString>
        <CharString name="Y">
          -175 -11 -21 824 -20 hstem
          -87 callsubr
          endchar
        </CharString>
        <CharString name="Yacute">
          -175 -11 -21 968 -20 hstem
          -87 callsubr
          513 886 -100 callsubr
        </CharString>
        <CharString name="Ydieresis">
          -175 -11 -21 840 98 hstem
          346 28 callgsubr
          vstem
          -87 callsubr
          283 773 -94 callsubr
        </CharString>
        <CharString name="Z">
          49 callsubr
          29 -20 -80 callgsubr
          endchar
        </CharString>
        <CharString name="Zcaron">
          49 callsubr
          69 115 -80 callgsubr
          -91 134 -87 callgsubr
        </CharString>
        <CharString name="a">
          -23 callgsubr
          30 callsubr
          -94 callgsubr
          endchar
        </CharString>
        <CharString name="aacute">
          -23 callgsubr
          169 -20 30 callsubr
          hintmask 01111000
          -107 callgsubr
          hintmask 10111000
          -45 callgsubr
          247 531 -100 callsubr
        </CharString>
        <CharString name="acircumflex">
          -23 callgsubr
          54 115 hstemhm
          -94 callgsubr
          156 513 -104 callgsubr
        </CharString>
        <CharString name="acute">
          521 -21 109 -20 hstem
          561 594 -100 callsubr
        </CharString>
        <CharString name="adieresis">
          -23 callgsubr
          65 98 30 callsubr
          4 28 callgsubr
          -81 callsubr
          22 442 -94 callsubr
        </CharString>
        <CharString name="ae">
          89 -12 57 -46 -21 432 23 -23 86 hstemhm
          -15 108 104 89 hintmask 10011100
          426 110 -84 callsubr
          -5 -2 -5 -2 -5 -3 rrcurveto
          10 18 6 12 -8 callgsubr
          hhcurveto
          hintmask 10101100
          -3 -6 13 -32 hhcurveto
          -175 -174 -284 -129 -24 9 -8 12 38 87 79 103 94 hvcurveto
          -18 -44 -10 -44 -40 vvcurveto
          hintmask 01101100
          -46 -86 callsubr
          -64 289 rmoveto
          -18 -34 -19 -32 -20 -30 -15 -17 -13 -19 -12 -19 rrcurveto
          -68 -88 -63 -55 0 vvcurveto
          -13 -14 callsubr
          -7 -3 6 8 63 161 244 92 4 13 -1 -6 -1 44 callsubr
          -1 hvcurveto
          109 -60 -78 callgsubr
          endchar
        </CharString>
        <CharString name="agrave">
          -23 callgsubr
          169 -20 hstemhm
          -94 callgsubr
          137 437 -97 callgsubr
        </CharString>
        <CharString name="ampersand">
          157 -64 -21 101 -21 720 47 hstem
          28 98 173 78 169 67 vstem
          611 394 rmoveto
          2 -20 -20 0 -18 hhcurveto
          -49 -38 -4 0 hvcurveto
          -8 -2 -35 callsubr
          -5 5 -4 0 vhcurveto
          43 -12 6 -35 -18 vvcurveto
          -66 -61 -91 -64 -43 vhcurveto
          -1 -2 -1 -1 -1 hhcurveto
          -4 0 22 callsubr
          2 134 20 173 34 111 rrcurveto
          0 1 4 6 3 vhcurveto
          71 34 102 77 78 vvcurveto
          33 -19 1 -5 -61 -121 -71 -206 -58 vhcurveto
          0 -1 -6 -7 -3 vhcurveto
          -139 -59 -174 -132 -163 vvcurveto
          -81 63 -46 73 38 46 10 26 54 vhcurveto
          0 2 -17 callgsubr
          2 -1 -4 1 vhcurveto
          -61 10 49 -51 29 hhcurveto
          5 3 -18 callsubr
          -1 2 -1 3 hvcurveto
          -17 32 -9 48 -2 56 rrcurveto
          0 0 6 7 5 vhcurveto
          0 171 106 66 201 vhcurveto
          7 -5 2 -5 1 vhcurveto
          -77 321 rmoveto
          5 7 -3 -11 -70 -94 -59 0 hvcurveto
          -1 -1 -1 0 -1 hhcurveto
          -3 0 3 2 22 50 117 38 hvcurveto
          -200 -281 rmoveto
          -16 -72 -19 -104 -101 vvcurveto
          -29 1 -28 4 -28 vhcurveto
          -7 -3 -6 -5 19 callgsubr
          -32 -12 -37 -46 -53 20 90 19 callgsubr
          0 178 202 106 vhcurveto
          4 2 -1 -4 hvcurveto
          endchar
        </CharString>
        <CharString name="apple">
          238 -12 45 63 45 327 44 63 163 hstem
          0 45 138 54 164 57 128 46 vstem
          434 738 rmoveto
          -60 hlineto
          -59 -61 -58 61 rlineto
          -59 hlineto
          90 -85 rlineto
          1 9 9 0 10 hhcurveto
          9 10 0 -1 9 hvcurveto
          288 -349 rmoveto
          174 -142 142 -174 -175 -141 -142 -174 -174 141 -142 175 174 142 142 174 vhcurveto
          -46 hmoveto
          -150 -121 -121 -149 -150 -121 121 150 149 121 122 150 149 121 -122 -149 vhcurveto
          -128 -100 rmoveto
          134 -221 -10 85 vvcurveto
          32 32 23 48 35 39 -13 -29 33 vhcurveto
          11 43 rlineto
          12 -24 -42 31 -55 hhcurveto
          -57 -74 -24 -79 hvcurveto
          -112 218 -14 -83 vvcurveto
          -35 -36 -24 -54 -36 -45 12 29 -47 vhcurveto
          -9 -47 rlineto
          -18 37 44 -21 48 hhcurveto
          81 74 33 75 hvcurveto
          endchar
        </CharString>
        <CharString name="aring">
          -23 callgsubr
          52 124 30 callsubr
          88 32 50 32 -81 callsubr
          115 429 -58 callgsubr
        </CharString>
        <CharString name="asciicircum">
          159 115 hstem
          262 241 -104 callgsubr
        </CharString>
        <CharString name="asciitilde">
          3 196 16 callgsubr
          hintmask 00100000
          390 255 -53 callsubr
          hintmask 10000000
          3 callgsubr
          hintmask 01000000
          -26 -74 -61 callgsubr
          hintmask 10000000
          35 67 -28 callgsubr
        </CharString>
        <CharString name="asterisk">
          -149 603 -21 84 36 76 -20 27 -20 hstemhm
          hintmask 11100000
          495 777 rmoveto
          1 -1 -1 0 -1 hhcurveto
          -11 -37 -20 -37 -48 hvcurveto
          hintmask 11010000
          37 -9 -13 27 -9 hhcurveto
          -10 -2 -20 -23 -12 1 -13 1 -15 hvcurveto
          -52 -2 -45 -8 -10 vvcurveto
          -8 29 -6 44 -2 vhcurveto
          -41 -38 -22 -29 -8 vvcurveto
          -1 1 1 0 1 hhcurveto
          10 35 21 37 49 hvcurveto
          -39 9 13 -27 10 hhcurveto
          8 3 19 22 14 -1 15 -1 13 hvcurveto
          53 2 44 7 12 vvcurveto
          7 -30 6 -43 3 vhcurveto
          41 38 24 29 8 vvcurveto
          endchar
        </CharString>
        <CharString name="at">
          344 -178 66 59 59 3 -21 423 24 134 49 hstemhm
          5 87 94 108 92 78 287 64 hintmask 1101111110000000
          148 -178 rmoveto
          7 126 4 98 53 hvcurveto
          2 4 1 3 2 57 callsubr
          -4 -5 -5 -2 0 vhcurveto
          -37 -44 -41 -11 -32 hhcurveto
          -79 -32 56 74 236 214 315 266 113 66 -67 -113 -208 -198 -175 -66 -15 -8 10 17 51 60 108 0 hvcurveto
          24 41 106 196 0 vvcurveto
          12 24 3 12 7 vvcurveto
          6 -3 3 -8 -27 -44 -56 6 callgsubr
          -3 -8 13 -30 hhcurveto
          -165 -190 -272 -145 hvcurveto
          hintmask 1011111110000000
          -12 3 -18 17 35 90 79 103 95 vhcurveto
          3 3 7 8 2 hhcurveto
          1 44 callsubr
          -3 -3 -6 -1 -2 hvcurveto
          0 -49 -98 -68 vvcurveto
          hintmask 1101111110000000
          -27 11 -27 34 106 278 231 269 117 -84 54 -113 vhcurveto
          hintmask 1011111110000000
          -254 -359 -303 -306 -89 30 -98 113 hvcurveto
          420 578 rmoveto
          -91 -172 -142 -122 0 vvcurveto
          -13 -15 -10 -2 -6 hhcurveto
          -7 -3 5 8 56 160 251 98 26 callsubr
        </CharString>
        <CharString name="atilde">
          -23 callgsubr
          29 16 callgsubr
          163 121 hintmask 01110010
          -107 callgsubr
          hintmask 10100110
          -45 callgsubr
          203 465 -53 callsubr
          hintmask 01110010
          3 callgsubr
          hintmask 01101010
          -56 callsubr
          hintmask 01110010
          -26 callgsubr
        </CharString>
        <CharString name="b">
          -64 -18 25 890 -20 hstem
          33 -18 rmoveto
          142 125 160 119 60 hvcurveto
          24 48 17 50 45 vvcurveto
          14 -3 25 -22 -69 -118 -151 0 vhcurveto
          47 callgsubr
          -2 -1 hhcurveto
          -2 0 3 56 callgsubr
          0 hvcurveto
          33 60 131 228 0 vvcurveto
          66 114 50 106 0 vvcurveto
          29 57 5 21 7 62 callgsubr
          6 -4 -12 -31 -39 0 vhcurveto
          -98 -131 -88 -158 -70 -121 rrcurveto
          -142 -245 -82 -196 0 0 -35 callsubr
          -3 1 -3 6 19 callgsubr
          23 -11 38 vhcurveto
          265 330 rmoveto
          -195 -82 -97 -110 -56 hhcurveto
          -3 -12 0 5 3 2 3 0 hvcurveto
          0 56 147 132 155 vhcurveto
          0 44 48 18 6 4 -6 -7 -8 -3 -13 -9 -22 vhcurveto
          endchar
        </CharString>
        <CharString name="backslash">
          -39 -12 -21 823 -20 hstem
          44 776 rmoveto
          13 -69 163 -725 21 callgsubr
          -17 81 -148 664 -13 47 26 callgsubr
          endchar
        </CharString>
        <CharString name="bar">
          -151 -12 -21 823 -20 hstem
          472 780 -11 callgsubr
          -414 -741 -25 callsubr
          407 723 36 69 vhcurveto
          0 -39 callsubr
          endchar
        </CharString>
        <CharString name="braceleft">
          -208 -32 -21 832 -20 hstem
          0 45 91 52 vstem
          47 -42 rmoveto
          5 -2 5 10 108 143 134 85 vvcurveto
          38 -22 22 0 vhcurveto
          -4 4 -1 3 2 vvcurveto
          7 11 -29 callgsubr
          107 20 56 124 0 vvcurveto
          122 238 45 -2 0 vvcurveto
          7 4 3 3 3 vvcurveto
          6 -15 2 0 vhcurveto
          -135 -17 -40 -136 -84 -137 -40 -66 -20 -21 -39 -6 rrcurveto
          0 -14 -2 -9 vvcurveto
          -2 1 -3 2 -1 callsubr
          8 -10 -22 -92 -136 -120 -105 vvcurveto
          -18 13 -62 26 4 4 3 8 vhcurveto
          endchar
        </CharString>
        <CharString name="braceright">
          -157 -32 -21 832 -20 hstem
          258 52 91 45 vstem
          399 768 rmoveto
          -5 2 -5 -10 -108 -143 -134 -85 vvcurveto
          -38 22 -22 0 vhcurveto
          4 -4 1 -3 -2 vvcurveto
          -7 -11 -29 callgsubr
          -107 -20 -56 -124 0 vvcurveto
          -122 -238 -45 2 0 vvcurveto
          -7 -4 -3 -3 -3 vvcurveto
          -6 15 -2 0 vhcurveto
          135 17 40 136 84 137 40 66 20 21 39 6 rrcurveto
          0 14 2 9 62 callgsubr
          3 -2 7 callsubr
          -8 10 22 92 136 120 105 vvcurveto
          18 -13 62 -26 -4 -4 -3 -8 vhcurveto
          endchar
        </CharString>
        <CharString name="bracketleft">
          -160 -64 -21 893 -20 hstem
          -29 60 vstem
          50 -77 rmoveto
          5 -4 6 0 vhcurveto
          -11 20 -4 20 17 vvcurveto
          34 15 24 32 callgsubr
          233 449 134 218 vhcurveto
          0 27 49 53 26 vhcurveto
          0 12 5 6 vvcurveto
          3 -4 3 -4 vhcurveto
          -103 -14 -33 -48 0 vvcurveto
          -134 -218 -248 -466 0 0 -8 -17 -21 vvcurveto
          -6 1 -5 1 -6 vhcurveto
          7 -26 13 -29 39 -33 rrcurveto
          -3 4 3 -1 3 hhcurveto
          -18 callsubr
          6 hvcurveto
          endchar
        </CharString>
        <CharString name="bracketright">
          -207 -64 -21 894 -20 hstem
          341 60 vstem
          322 803 rmoveto
          -8 4 -6 0 vhcurveto
          12 -21 3 -20 -17 vvcurveto
          -34 -14 -23 32 callgsubr
          -233 -449 -135 -218 vhcurveto
          0 -26 -49 -53 -25 vhcurveto
          0 -12 61 callsubr
          -3 4 -3 7 vhcurveto
          100 14 32 48 0 vvcurveto
          135 218 247 466 0 0 8 17 21 vvcurveto
          6 -1 5 -1 6 vhcurveto
          -7 26 -12 29 -39 33 rrcurveto
          3 -4 -4 2 -3 hhcurveto
          -4 -4 -3 -3 hvcurveto
          endchar
        </CharString>
        <CharString name="breve">
          488 41 66 -20 hstemhm
          326 36 -36 174 hintmask 11010000
          339 509 rmoveto
          -16 11 20 -5 16 hhcurveto
          54 60 54 41 7 -5 5 -13 hvcurveto
          -38 -18 -36 -28 -27 hhcurveto
          hintmask 11100000
          -20 -16 15 40 -3 hvcurveto
          -18 -18 -14 -25 -11 3 -12 10 -13 hvcurveto
          endchar
        </CharString>
        <CharString name="brokenbar">
          -151 -12 -21 822 -20 hstem
          212 311 -11 callgsubr
          -154 -272 -25 callsubr
          147 254 36 69 vhcurveto
          0 -39 callsubr
          259 468 -11 callgsubr
          -154 -272 -25 callsubr
          147 254 36 69 vhcurveto
          0 -39 callsubr
          endchar
        </CharString>
        <CharString name="bullet">
          -240 148 174 hstem
          14 153 vstem
          59 148 rmoveto
          54 1 54 65 57 vvcurveto
          30 -16 21 -29 -55 -53 -71 -54 -30 18 -19 27 vhcurveto
          endchar
        </CharString>
        <CharString name="c">
          -106 -21 66 357 36 hstem
          1 91 209 81 vstem
          -64 callgsubr
          -36 7 -35 39 58 94 75 43 45 vhcurveto
          endchar
        </CharString>
        <CharString name="caron">
          53 callsubr
          392 527 -87 callgsubr
        </CharString>
        <CharString name="ccedilla">
          -106 -95 140 357 36 hstemhm
          1 91 -51 33 227 81 hintmask 11101000
          -64 callgsubr
          -33 7 -37 48 -1 vhcurveto
          hintmask 11011000
          0 -15 -11 -10 -5 8 -8 -8 vvcurveto
          -11 -13 -5 -8 vhcurveto
          -8 -3 3 -5 20 callgsubr
          -1 -4 hvcurveto
          -12 3 14 -2 10 hhcurveto
          21 19 15 20 hvcurveto
          11 -7 7 8 vvcurveto
          9 5 6 7 4 vhcurveto
          56 18 71 58 38 36 rrcurveto
          endchar
        </CharString>
        <CharString name="cedilla">
          44 -128 21 84 -20 hstem
          101 44 vstem
          152 -24 rmoveto
          1 -3 -3 0 -3 hhcurveto
          -19 -23 -17 -17 hvcurveto
          -37 callgsubr
          endchar
        </CharString>
        <CharString name="cent">
          -93 -47 -21 68 -21 500 -20 hstem
          1 91 209 81 vstem
          244 97 rmoveto
          -88 callsubr
          -50 -48 -34 -13 -19 -3 76 140 rcurveline
          15 callsubr
          5 -7 0 0 -9 -6 -6 -12 -8 vhcurveto
          -14 -22 -26 -47 -33 -61 rrcurveto
          -9 7 -2 14 11 vvcurveto
          -19 callgsubr
          vhcurveto
          -35 callgsubr
          19 -15 9 -19 1 vhcurveto
          5 9 5 8 4 9 rrcurveto
          1 3 -39 callsubr
          6 -3 2 -5 -7 -9 -5 -8 -5 vhcurveto
          -18 -30 rlineto
          -147 -24 -169 -219 -143 vvcurveto
          -36 7 -35 39 6 6 1 1 6 vhcurveto
          -12 -21 -7 -15 0 vvcurveto
          -1 -23 callsubr
          vvcurveto
          -4 4 -3 7 vhcurveto
          0 8 -1 10 17 vhcurveto
          25 45 52 23 60 49 34 32 rlinecurve
          endchar
        </CharString>
        <CharString name="circumflex">
          53 callsubr
          444 576 -104 callgsubr
        </CharString>
        <CharString name="colon">
          -193 -8 116 206 116 hstem
          0 102 77 102 vstem
          209 314 rmoveto
          -70 callgsubr
          -179 -322 rmoveto
          -70 callgsubr
          endchar
        </CharString>
        <CharString name="comma">
          -49 callgsubr
        </CharString>
        <CharString name="copyright">
          13 137 -21 46 217 53 -20 hstem
          84 24 57 30 192 23 vstem
          -41 callgsubr
          -102 -74 rmoveto
          2 3 4 10 8 62 callgsubr
          7 -3 -3 -5 -15 -13 -6 vhcurveto
          -56 -29 -29 -1 -4 hhcurveto
          -13 -3 13 13 50 40 67 36 33 hvcurveto
          0 15 15 14 5 2 46 callsubr
          -5 -6 -2 -4 vhcurveto
          -6 -11 -10 -19 -8 vvcurveto
          -1 1 -1 1 13 41 56 11 4 -3 0 41 callsubr
          0 0 -2 -13 -6 -5 0 -1 -2 -1 41 callsubr
          -1 1 0 vhcurveto
          1 -4 -5 1 -4 hhcurveto
          -22 -22 -16 0 hvcurveto
          -52 -40 -37 -69 -58 vvcurveto
          -14 3 -20 20 39 40 44 30 18 vhcurveto
          endchar
        </CharString>
        <CharString name="currency">
          16 238 -21 35 34 187 35 -35 68 6 -20 hstemhm
          182 40 184 40 hintmask 11010110
          280 252 rmoveto
          22 23 5 11 21 hvcurveto
          5 -24 4 -12 21 callgsubr
          -14 62 rlineto
          37 30 26 44 48 vvcurveto
          21 -6 21 -11 15 vhcurveto
          53 55 rlineto
          -15 callsubr
          -47 callsubr
          -26 -26 rlineto
          hintmask 11101110
          8 -14 -18 4 -19 hhcurveto
          -26 -26 -8 -13 -24 hvcurveto
          -5 21 -3 14 -2 6 26 callgsubr
          15 -72 rlineto
          -33 -30 -23 -42 -43 vvcurveto
          -23 6 -20 12 -15 vhcurveto
          -34 -35 -20 -21 0 callsubr
          11 18 19 vhcurveto
          -7 14 17 -4 19 hhcurveto
          126 151 rmoveto
          -58 -55 -59 -62 -39 -28 31 39 60 59 57 58 40 27 -30 -40 vhcurveto
          endchar
        </CharString>
        <CharString name="d">
          -23 8 -21 424 22 496 -20 hstemhm
          -15 107 0 66 hintmask 11110000
          134 107 rmoveto
          -14 -14 callsubr
          -8 -3 5 9 62 166 245 93 6 5 -1 -3 5 hvcurveto
          0 1 -1 -2 vvcurveto
          51 callsubr
          vhcurveto
          -85 -168 -148 -125 0 vvcurveto
          221 44 rmoveto
          -17 -18 -34 -37 -16 hhcurveto
          -4 -2 2 5 14 35 64 14 24 hvcurveto
          24 40 111 198 0 vvcurveto
          62 109 154 282 0 vvcurveto
          23 47 9 27 12 vvcurveto
          5 -2 3 -3 -8 -17 -16 -24 -18 vhcurveto
          -80 -103 -133 -230 -71 -128 rrcurveto
          45 callsubr
          -1 -1 -2 -10 8 -23 hhcurveto
          -166 -190 -263 -152 -17 4 -12 13 -1 hvcurveto
          0 1 -1 3 7 18 4 27 35 vhcurveto
          0 90 72 70 81 vhcurveto
          2 2 6 5 -39 callgsubr
          -3 -3 -4 hvcurveto
          hintmask 11101000
          0 -77 -123 -42 vvcurveto
          -10 6 -5 8 36 88 81 29 31 vhcurveto
          -103 callgsubr
          endchar
        </CharString>
        <CharString name="dagger">
          47 -214 -21 536 45 169 -20 hstem
          410 496 -25 callgsubr
          -83 -149 rlineto
          -146 -62 callgsubr
          140 hlineto
          -289 -518 -18 callgsubr
          -10 callsubr
          288 517 rlineto
          145 -19 callsubr
          endchar
        </CharString>
        <CharString name="degree">
          -96 461 186 -28 28 hstemhm
          215 29 113 29 hintmask 10110000
          266 461 rmoveto
          57 63 69 60 34 -21 23 -31 -48 -71 -65 -64 -35 20 -22 31 hvcurveto
          hintmask 01110000
          58 158 rmoveto
          22 11 -15 -23 -45 -47 -45 -34 -3 hvcurveto
          -20 -12 17 22 47 45 45 35 hvcurveto
          endchar
        </CharString>
        <CharString name="dieresis">
          505 98 hstem
          257 28 callgsubr
          vstem
          282 505 -94 callsubr
        </CharString>
        <CharString name="divide">
          106 215 98 49 45 50 98 hstem
          246 86 55 86 vstem
          411 457 rmoveto
          31 31 37 32 17 -10 12 -15 -27 -34 -37 -33 -16 9 -12 15 hvcurveto
          -140 -242 rmoveto
          31 30 38 32 17 -10 11 -15 -27 -34 -36 -34 -31 callgsubr
          254 147 -63 callgsubr
          endchar
        </CharString>
        <CharString name="dollar">
          53 -57 -21 49 26 9 -21 743 28 55 -20 hstemhm
          382 174 -174 187 hintmask 11011010
          137 -29 rmoveto
          152 163 124 172 72 -29 65 -20 66 hvcurveto
          55 100 51 90 34 61 rrcurveto
          21 -11 5 -22 -16 vvcurveto
          hintmask 11011100
          -28 -13 -41 -26 1 callsubr
          64 93 43 82 11 vvcurveto
          7 -5 3 -7 -9 -14 -4 -4 -13 vhcurveto
          -3 -9 -10 -3 -12 hhcurveto
          -15 -6 3 1 -20 hvcurveto
          21 39 rlineto
          1 57 callgsubr
          vvcurveto
          hintmask 10111010
          7 -7 4 -8 -11 -11 -15 -4 -1 vhcurveto
          -21 -36 rlineto
          -116 -7 -130 -79 -131 vvcurveto
          -51 19 -52 17 -56 vhcurveto
          -205 -368 rlineto
          -31 21 -12 40 46 vvcurveto
          41 12 55 36 70 vhcurveto
          0 2 4 5 61 callgsubr
          6 -9 -4 -11 -2 -38 -23 vhcurveto
          0 -85 -143 -57 -123 vhcurveto
          0 -35 callsubr
          -4 3 -5 12 vhcurveto
          31 23 16 15 hhcurveto
          hintmask 11011100
          5 4 -1 -3 5 hvcurveto
          0 26 -14 42 -8 vhcurveto
          -14 -25 -8 -15 0 0 -3 -4 -3 vvcurveto
          -3 2 -3 9 8 12 0 14 8 vhcurveto
          0 8 15 12 20 vhcurveto
          13 hlineto
          191 366 rmoveto
          10 -36 8 -38 -40 vvcurveto
          -91 -67 -135 -114 -9 -9 1 2 -7 vhcurveto
          250 515 rmoveto
          -5 23 -3 24 24 vvcurveto
          67 43 73 84 2 vhcurveto
          endchar
        </CharString>
        <CharString name="dotaccent">
          -212 53 callsubr
          246 97 vstem
          271 494 -49 callsubr
        </CharString>
        <CharString name="dotlessi">
          27 callsubr
          450 -20 -91 callgsubr
          endchar
        </CharString>
        <CharString name="e">
          -107 -22 67 394 -20 -96 callgsubr
          endchar
        </CharString>
        <CharString name="eacute">
          -74 callgsubr
          234 484 -100 callsubr
        </CharString>
        <CharString name="ecircumflex">
          -107 -22 67 449 115 -96 callgsubr
          161 466 -104 callgsubr
        </CharString>
        <CharString name="edieresis">
          -107 -22 67 460 98 hstem
          1 89 140 28 callgsubr
          -101 callgsubr
          25 395 -94 callsubr
        </CharString>
        <CharString name="egrave">
          -74 callgsubr
          139 390 -97 callgsubr
        </CharString>
        <CharString name="eight">
          94 -16 27 727 26 hstemhm
          19 95 229 90 -41 97 116 88 hintmask 11101100
          198 -16 rmoveto
          150 141 105 167 hvcurveto
          88 -27 89 3 vvcurveto
          6 4 1 0 vhcurveto
          77 38 150 84 107 vvcurveto
          67 -64 25 -75 vhcurveto
          hintmask 11110100
          -116 -95 -75 -90 -38 1 -40 13 -47 hvcurveto
          -2 0 -6 -5 -2 vhcurveto
          -125 -50 -208 -113 -165 vvcurveto
          -105 76 -47 103 vhcurveto
          hintmask 11101100
          194 267 rmoveto
          -104 -63 -136 -122 -57 -36 35 61 193 196 121 46 17 vhcurveto
          -17 callgsubr
          0 1 hhcurveto
          5 0 -6 0 hvcurveto
          15 -59 11 -67 -56 vvcurveto
          71 220 rmoveto
          -1 -2 -2 0 -1 hhcurveto
          -4 -2 3 0 hvcurveto
          hintmask 11110100
          -17 79 -2 10 67 vvcurveto
          62 55 47 52 35 30 -23 -42 -84 -63 -76 -79 -42 vhcurveto
          endchar
        </CharString>
        <CharString name="ellipsis">
          127 -8 116 hstem
          0 102 73 102 71 102 vstem
          30 -8 rmoveto
          -70 callgsubr
          175 hmoveto
          -70 callgsubr
          173 hmoveto
          -70 callgsubr
          endchar
        </CharString>
        <CharString name="emdash">
          335 203 45 hstem
          696 203 -66 callgsubr
          -547 -5 callgsubr
        </CharString>
        <CharString name="endash">
          35 203 45 hstem
          413 203 rmoveto
          29 callgsubr
          -273 37 callgsubr
          endchar
        </CharString>
        <CharString name="equal">
          106 310 45 59 45 hstem
          493 310 -63 callgsubr
          412 104 -63 callgsubr
          endchar
        </CharString>
        <CharString name="eth">
          -58 16 -21 429 25 423 -20 hstemhm
          0 85 256 152 -66 66 hintmask 11110100
          110 320 rmoveto
          -102 -130 -8 -104 -31 vvcurveto
          -36 14 -24 29 46 87 58 0 vhcurveto
          166 117 151 313 194 vvcurveto
          12 -1 11 -1 11 vhcurveto
          145 102 8 callsubr
          -9 -5 -66 -46 -71 -51 rrcurveto
          -18 91 -50 34 58 callsubr
          -7 -5 2 -4 hhcurveto
          -6 -1 -4 -4 -5 2 -6 0 hvcurveto
          0 29 -42 -95 vvcurveto
          -17 vlineto
          -74 -53 -66 -47 9 callgsubr
          128 91 -6 -60 -17 -74 -36 -92 rlinecurve
          0 -3 -3 -4 vhcurveto
          10 -17 -18 5 -18 hhcurveto
          -83 -85 -94 -35 -27 hvcurveto
          222 40 rmoveto
          0 -88 -235 -111 -68 vhcurveto
          0 -13 -9 -13 -10 -12 6 23 108 136 239 90 vhcurveto
          hintmask 11111000
          19 11 -11 -17 -9 -2 -12 -7 -15 hvcurveto
          endchar
        </CharString>
        <CharString name="exclam">
          -156 -2 119 632 -20 hstem
          0 101 vstem
          73 117 rmoveto
          -39 -34 -46 -39 -19 9 -15 21 38 33 47 38 17 -7 17 -21 hvcurveto
          169 345 rmoveto
          -46 -101 -87 -153 0 vvcurveto
          -2 12 callgsubr
          -2 vvcurveto
          -8 9 -1 3 22 10 11 0 0 77 124 72 119 vhcurveto
          70 115 83 119 18 48 rrcurveto
          1 3 -27 callgsubr
          13 -14 2 -13 -30 -31 -10 -31 -17 vhcurveto
          0 -80 -145 -45 -101 vhcurveto
          endchar
        </CharString>
        <CharString name="exclamdown">
          -172 -251 -21 632 119 hstem
          219 101 vstem
          247 360 rmoveto
          50 callsubr
          51 callgsubr
          hvcurveto
          -169 -345 rmoveto
          46 101 87 153 48 callsubr
          15 callgsubr
          -9 1 -3 -22 -10 -11 0 0 -77 -124 -72 -119 vhcurveto
          -70 -115 -83 -119 -18 -48 rrcurveto
          -1 -3 -1 -3 -3 vvcurveto
          -13 14 -2 13 30 31 10 31 17 vhcurveto
          0 80 145 45 101 vhcurveto
          endchar
        </CharString>
        <CharString name="f">
          -159 -285 -21 1134 -20 hstem
          -82 callgsubr
          endchar
        </CharString>
        <CharString name="fi">
          23 -285 -21 314 -21 436 -21 92 115 219 -20 hstem
          373 -95 callsubr
          -14 -16 -6 -8 -14 vhcurveto
          -190 -78 callsubr
          -68 callsubr
          161 hlineto
          -8 -8 -7 -8 -6 -9 rrcurveto
          -71 callgsubr
          -158 231 -58 callsubr
          291 166 -49 callsubr
        </CharString>
        <CharString name="five">
          13 -52 29 468 75 137 87 7 -20 hstemhm
          342 98 hintmask 11101000
          264 520 rmoveto
          -8 -1 4 42 callgsubr
          4 0 hvcurveto
          6 20 49 78 0 vvcurveto
          10 18 18 1 23 callsubr
          16 44 2 51 24 25 -1 30 hhcurveto
          67 29 72 14 hvcurveto
          hintmask 11011000
          5 -3 4 -7 -3 -4 24 callsubr
          hintmask 11101000
          -5 -20 -38 -1 -41 -69 -75 4 -5 hhcurveto
          -16 -6 -9 0 0 -142 -235 -19 -42 hvcurveto
          0 -2 -4 -5 vvcurveto
          -5 3 -6 11 vhcurveto
          8 10 3 9 hhcurveto
          35 91 -10 -95 -151 -176 -212 -192 hvcurveto
          0 -17 -2 -9 vvcurveto
          -3 1 -4 5 -1 callsubr
          24 -7 39 205 209 211 196 104 -74 61 -102 vhcurveto
          endchar
        </CharString>
        <CharString name="fl">
          41 -285 -21 306 -21 941 -20 hstem
          799 74 vstem
          -82 callgsubr
          311 159 rmoveto
          -1 -2 -3 -1 -3 hhcurveto
          68 125 89 163 83 83 rrcurveto
          3 3 20 17 11 hhcurveto
          4 3 -3 -7 -38 -70 -197 -203 -144 hvcurveto
          -107 -336 rmoveto
          -7 -7 -52 -51 -19 hhcurveto
          -4 -3 3 6 5 2 6 3 9 hvcurveto
          0 71 168 98 159 vhcurveto
          3 4 5 42 callgsubr
          rrcurveto
          98 54 256 211 171 vvcurveto
          20 -13 6 -15 -19 -23 -9 -3 -6 vhcurveto
          -131 -65 -124 -181 -107 -195 -45 -84 -88 -160 -39 -88 rrcurveto
          -19 -44 -27 -52 -39 vvcurveto
          -13 4 -8 11 7 30 3 115 122 vhcurveto
          -103 callgsubr
          endchar
        </CharString>
        <CharString name="four">
          21 -6 -21 253 83 468 -20 hstem
          496 298 rmoveto
          3 -45 callsubr
          6 -5 1 -5 -11 -31 -5 -2 -51 vhcurveto
          108 190 135 226 14 30 rrcurveto
          2 4 0 2 3 vvcurveto
          11 -11 2 -9 -6 -6 24 callsubr
          -205 -65 -402 -447 0 0 -4 -7 -8 vvcurveto
          -8 4 -8 16 41 callsubr
          90 -6 106 vhcurveto
          27 hlineto
          -62 -109 -53 -94 -13 -29 rrcurveto
          0 -1 -4 -4 vvcurveto
          -6 2 -7 10 39 51 30 38 24 vhcurveto
          0 41 82 58 105 vhcurveto
          15 1 15 1 16 2 18 2 47 4 33 60 rrcurveto
          9 355 rmoveto
          0 -103 -175 -99 -170 vhcurveto
          -85 1 -63 8 0 vvcurveto
          -12 2 -3 6 5 vvcurveto
          8 7 8 32 callgsubr
          154 187 193 132 vhcurveto
          0 7 -18 callsubr
          2 19 callsubr
          -1 -4 -3 -6 vhcurveto
          endchar
        </CharString>
        <CharString name="foursuperior">
          3 206 235 -58 58 327 38 callgsubr
          480 433 -70 callsubr
          hintmask 01100000
          -30 callsubr
          hintmask 10100000
          -79 callsubr
          endchar
        </CharString>
        <CharString name="fraction">
          -30 -4 -21 797 -20 hstem
          663 -65 callsubr
          endchar
        </CharString>
        <CharString name="g">
          -560 -21 590 -21 508 -20 hstem
          -179 30 134 110 vstem
          235 167 rmoveto
          0 -41 -83 -60 -113 vhcurveto
          -91 -75 -85 -81 -64 -105 -85 callgsubr
          rrcurveto
          23 41 107 197 -8 callgsubr
          -4 -8 13 -34 hhcurveto
          -161 -190 -272 -144 -22 8 -7 12 19 28 19 11 15 hvcurveto
          0 93 73 69 80 vhcurveto
          0 6 7 4 vhcurveto
          -3 -4 -8 0 vhcurveto
          133 233 rmoveto
          -97 -184 -136 -112 0 vvcurveto
          -11 -13 -9 -3 -6 hhcurveto
          -8 -4 4 10 70 173 237 85 4 12 -1 -6 -1 44 callsubr
          -1 hvcurveto
          -449 -688 rmoveto
          49 80 68 69 72 62 -63 -116 -76 -137 -52 callgsubr
          endchar
        </CharString>
        <CharString name="germandbls">
          59 -11 52 -40 -21 750 25 hstemhm
          305 78 -23 23 -23 87 114 75 hintmask 10100110
          230 -11 rmoveto
          132 85 99 122 hvcurveto
          hintmask 01110010
          98 -64 64 51 vvcurveto
          31 20 16 0 vhcurveto
          16 16 82 41 0 vvcurveto
          54 25 81 52 72 vvcurveto
          75 -101 4 -15 -125 -76 -93 0 vhcurveto
          -51 -53 -148 -271 -11 -22 rrcurveto
          -145 -293 -71 -27 0 0 -3 55 callsubr
          2 -3 7 49 95 48 87 50 vhcurveto
          0 47 62 89 197 vhcurveto
          0 130 288 82 48 vhcurveto
          0 33 20 32 35 20 -25 -35 -28 -12 -43 -54 -40 vhcurveto
          0 -45 -36 -76 -35 vhcurveto
          0 -69 -23 -55 vvcurveto
          hintmask 10101010
          -49 55 -59 -94 vvcurveto
          -87 -60 -80 -81 -30 -35 13 38 -24 vhcurveto
          0 -4 4 -4 -3 -4 -2 -9 19 callgsubr
          2 -96 115 vhcurveto
          endchar
        </CharString>
        <CharString name="grave">
          515 -21 115 -20 hstem
          425 500 -97 callgsubr
        </CharString>
        <CharString name="greater">
          -14 187 31 callgsubr
          352 80 vstem
          339 555 -76 callgsubr
          endchar
        </CharString>
        <CharString name="greaterequal">
          148 187 45 346 -20 hstem
          444 187 rmoveto
          23 12 32 0 12 -10 1 -7 hvcurveto
          -354 hlineto
          -23 -12 -32 0 -11 10 -2 7 hvcurveto
          224 385 rmoveto
          4 -11 -8 2 -6 hhcurveto
          -15 -3 -21 -10 -12 4 -9 0 hvcurveto
          9 -26 140 -26 65 -23 rrcurveto
          10 25 callgsubr
          -3 vvcurveto
          -3 -2 24 callsubr
          -16 -27 -306 -83 0 vvcurveto
          -41 -10 -11 -38 0 vvcurveto
          -2 -4 -6 callgsubr
          -5 4 -1 3 4 callgsubr
          0 vhcurveto
          179 40 247 98 0 vvcurveto
          28 11 44 17 29 vvcurveto
          7 -3 10 -15 6 vhcurveto
          0 -190 51 -109 38 vhcurveto
          endchar
        </CharString>
        <CharString name="guillemotleft">
          130 17 20 callsubr
          406 -20 21 -20 hstemhm
          hintmask 10010000
          121 15 -77 callsubr
          186 2 rmoveto
          hintmask 01100000
          -17 15 19 -3 19 hhcurveto
          19 5 6 7 7 -5 7 0 hvcurveto
          -58 99 -23 45 -2 15 rrcurveto
          10 6 6 0 vhcurveto
          30 34 261 146 0 vvcurveto
          12 8 31 callsubr
          -12 2 -13 -18 -19 -1 -11 -22 vhcurveto
          -41 -21 -53 -30 -49 -30 rrcurveto
          -86 -51 -63 -47 0 0 -17 -12 -17 vvcurveto
          hintmask 10010000
          -27 69 -112 24 -27 vhcurveto
          endchar
        </CharString>
        <CharString name="guillemotright">
          171 22 -21 407 -20 21 -20 hstemhm
          272 82 107 80 hintmask 10111000
          448 390 -76 callgsubr
          hintmask 11011000
          -187 -2 rmoveto
          17 -15 -18 -32 callgsubr
          24 -45 -15 vvcurveto
          -11 -5 -5 0 vhcurveto
          -31 -34 -260 -146 -3 callgsubr
          -10 18 0 6 17 26 4 9 17 vhcurveto
          40 21 54 31 48 29 rrcurveto
          86 51 63 47 0 0 17 12 17 vvcurveto
          24 -71 117 -22 25 vhcurveto
          endchar
        </CharString>
        <CharString name="guilsinglleft">
          -71 17 31 callgsubr
          121 15 -77 callsubr
          endchar
        </CharString>
        <CharString name="guilsinglright">
          -30 22 31 callgsubr
          260 80 vstem
          247 390 -76 callgsubr
          endchar
        </CharString>
        <CharString name="h">
          -18 -5 -21 33 -21 346 103 495 -20 hstemhm
          hintmask 10110000
          360 151 rmoveto
          -23 -26 -27 -27 -12 hhcurveto
          -7 -2 4 5 24 58 97 19 27 hvcurveto
          69 113 8 48 2 vvcurveto
          11 -6 3 -8 -69 -189 -209 -40 -36 vhcurveto
          -4 -4 -2 -2 -20 callgsubr
          3 17 callsubr
          15 31 18 24 112 198 rrcurveto
          61 109 157 283 0 vvcurveto
          22 45 10 28 13 61 callgsubr
          2 -4 -12 -30 -40 0 vhcurveto
          -81 -105 -137 -230 -72 -127 rrcurveto
          0 -116 -203 -40 -77 vhcurveto
          0 -72 -127 -37 vvcurveto
          -6 2 -4 7 vhcurveto
          0 37 6 114 145 vhcurveto
          40 31 136 167 37 hhcurveto
          3 3 -1 -5 hvcurveto
          -30 -163 -208 -83 vvcurveto
          hintmask 01110000
          -13 6 -6 9 32 74 63 48 52 vhcurveto
          -103 callgsubr
          endchar
        </CharString>
        <CharString name="hungarumlaut">
          521 -21 109 -20 hstem
          581 594 rmoveto
          -103 callsubr
          -123 hmoveto
          -102 callsubr
        </CharString>
        <CharString name="hyphen">
          36 203 45 hstem
          416 203 -66 callgsubr
          -267 -5 callgsubr
        </CharString>
        <CharString name="i">
          27 callsubr
          507 115 56 callsubr
          150 97 -98 callgsubr
          133 397 -49 callsubr
        </CharString>
        <CharString name="iacute">
          27 callsubr
          622 -20 -91 callgsubr
          244 497 -100 callsubr
        </CharString>
        <CharString name="icircumflex">
          27 callsubr
          507 115 -91 callgsubr
          165 479 -104 callgsubr
        </CharString>
        <CharString name="idieresis">
          27 callsubr
          518 98 56 callsubr
          59 28 callgsubr
          -98 callgsubr
          42 408 -94 callsubr
        </CharString>
        <CharString name="igrave">
          27 callsubr
          622 -20 -91 callgsubr
          153 403 -97 callgsubr
        </CharString>
        <CharString name="j">
          -226 -560 -21 1075 115 hstem
          -380 30 591 97 vstem
          134 206 rmoveto
          21 40 78 136 25 44 rrcurveto
          1 -9 callgsubr
          4 -3 1 -6 -19 -44 -21 -39 -30 vhcurveto
          -33 -45 -89 -165 0 vvcurveto
          0 -40 -82 -60 -112 vhcurveto
          -92 -76 -87 -81 -64 -106 -63 callsubr
          6 12 10 17 11 19 57 45 53 42 39 41 -72 callsubr
          -35 -28 30 52 32 56 14 26 rrcurveto
          -416 -494 rmoveto
          50 80 69 70 72 63 -63 -116 -78 -139 -52 callgsubr
          548 782 -49 callsubr
        </CharString>
        <CharString name="k">
          -33 -16 100 -74 -21 388 61 488 -20 hstemhm
          163 90 hintmask 10111000
          345 151 rmoveto
          -18 -20 -41 -49 -20 hhcurveto
          -7 -4 6 16 26 40 245 76 24 5 -25 0 hvcurveto
          -7 2 2 -3 3 hhcurveto
          15 15 58 14 21 -8 3 -8 -66 -195 -224 -31 -31 hvcurveto
          47 callgsubr
          -1 -1 55 callgsubr
          56 callgsubr
          0 hvcurveto
          24 40 119 213 0 vvcurveto
          61 109 157 284 0 vvcurveto
          19 38 13 33 15 vvcurveto
          5 -2 3 -3 -12 -30 -39 0 vhcurveto
          -81 -103 -131 -228 -75 -133 rrcurveto
          0 -108 -188 -38 -73 vhcurveto
          0 -72 -123 -42 vvcurveto
          -9 4 -4 6 19 41 36 41 27 vhcurveto
          0 75 103 86 86 vhcurveto
          0 4 4 callgsubr
          1 0 -2 51 callsubr
          vhcurveto
          0 -62 -144 -80 vvcurveto
          hintmask 01111000
          -22 6 -11 12 31 63 67 41 42 vhcurveto
          -103 callgsubr
          endchar
        </CharString>
        <CharString name="l">
          -194 0 -21 941 -20 hstem
          564 74 vstem
          291 487 rmoveto
          -1 -2 -3 -1 -3 hhcurveto
          68 125 89 163 83 83 rrcurveto
          3 3 20 17 11 hhcurveto
          4 3 -3 -7 -38 -70 -197 -203 -144 hvcurveto
          -107 -336 rmoveto
          -7 -7 -52 -51 -19 hhcurveto
          -4 -3 3 6 5 2 6 3 9 hvcurveto
          0 71 168 98 159 vhcurveto
          3 4 5 42 callgsubr
          rrcurveto
          98 54 256 211 171 vvcurveto
          20 -13 6 -15 -19 -23 -9 -3 -6 vhcurveto
          -131 -65 -124 -181 -107 -195 -45 -84 -88 -160 -39 -88 rrcurveto
          -19 -44 -27 -52 -39 vvcurveto
          -13 4 -8 11 7 30 3 115 122 vhcurveto
          -103 callgsubr
          endchar
        </CharString>
        <CharString name="less">
          -21 195 31 callgsubr
          242 193 -77 callsubr
          endchar
        </CharString>
        <CharString name="lessequal">
          133 187 45 347 -20 hstem
          161 127 vstem
          436 187 rmoveto
          16 3 19 18 14 vvcurveto
          4 -3 6 -14 vhcurveto
          -355 hlineto
          -22 -12 -32 0 -12 10 -1 7 hvcurveto
          393 84 rmoveto
          -4 11 8 -2 6 hhcurveto
          15 3 20 11 12 -4 9 0 hvcurveto
          -9 26 -140 26 -65 23 rrcurveto
          -10 3 -2 4 2 vvcurveto
          31 335 83 -11 1 vhcurveto
          24 7 31 24 26 vvcurveto
          5 -4 1 -3 -2 -2 24 callsubr
          -180 -40 -246 -98 0 vvcurveto
          -32 -15 -37 -17 -29 vvcurveto
          -6 2 -9 14 -1 callsubr
          189 -51 109 -38 vhcurveto
          endchar
        </CharString>
        <CharString name="logicalnot">
          106 214 193 -45 45 hstemhm
          hintmask 10000000
          560 398 rmoveto
          4 -3 5 -14 vhcurveto
          -347 -44 callgsubr
          hvcurveto
          hintmask 01000000
          -27 callsubr
          vhcurveto
          303 hlineto
          -73 -130 -18 callgsubr
          hintmask 10000000
          -10 callsubr
          86 154 rlineto
          2 4 1 3 4 vvcurveto
          endchar
        </CharString>
        <CharString name="lslash">
          -220 3 -21 944 -20 hstem
          130 97 rmoveto
          33 30 41 44 57 63 -106 callgsubr
          -48 -55 -37 -40 -26 -26 rrcurveto
          -16 -16 -39 -39 -14 hhcurveto
          -4 -2 3 5 17 33 60 12 20 hvcurveto
          24 40 111 198 8 callgsubr
          46 145 103 8 callsubr
          -7 -4 -47 -33 -57 -40 rrcurveto
          70 127 89 164 0 vvcurveto
          11 callsubr
          -75 -96 -117 -203 -76 -135 rrcurveto
          -62 -44 -49 -35 9 callgsubr
          69 49 -31 -54 -70 -124 -29 -56 rlinecurve
          -33 -62 -38 -72 -31 vvcurveto
          -10 3 -5 9 36 88 86 29 32 vhcurveto
          endchar
        </CharString>
        <CharString name="m">
          186 8 20 callsubr
          449 -20 hstemhm
          365 128 hintmask 01110000
          564 151 rmoveto
          -2 -2 -46 -46 -17 hhcurveto
          -4 28 callsubr
          30 76 117 0 hvcurveto
          69 113 8 49 2 vvcurveto
          11 -7 3 -8 -8 -8 -3 -2 -5 vhcurveto
          -105 6 callsubr
          -5 -2 callgsubr
          2 11 42 65 15 28 hvcurveto
          38 70 21 44 21 vvcurveto
          10 -4 4 -10 -9 -9 -4 -1 -2 vhcurveto
          -106 6 callsubr
          -5 -16 callsubr
          7 15 23 38 23 42 rrcurveto
          38 72 43 56 15 0 callgsubr
          3 -6 -56 -49 -71 -45 -24 vhcurveto
          0 -59 -101 -38 -71 vhcurveto
          0 -76 -133 -21 vvcurveto
          -5 6 -2 7 41 28 36 29 21 vhcurveto
          0 151 202 105 75 vhcurveto
          0 9 6 5 2 2 -1 -4 -18 -74 -118 -25 -46 vhcurveto
          0 -76 -134 -20 vvcurveto
          hintmask 10110000
          -6 6 -2 7 41 29 -33 callsubr
          -5 -5 -11 -13 -21 vhcurveto
          -29 -50 -118 -182 -55 vvcurveto
          -13 6 -6 10 36 89 82 28 30 vhcurveto
          -103 callgsubr
          endchar
        </CharString>
        <CharString name="macron">
          498 45 hstem
          510 498 -66 callgsubr
          -287 -5 callgsubr
        </CharString>
        <CharString name="minus">
          106 362 45 hstem
          525 362 -63 callgsubr
          endchar
        </CharString>
        <CharString name="mu">
          -23 -323 -21 351 -21 452 -20 hstem
          -107 callsubr
          -58 -77 -50 -112 -50 -76 -8 callsubr
          49 115 225 0 vhcurveto
          14 29 19 37 21 39 77 32 132 147 48 55 rrcurveto
          -54 callgsubr
          hvcurveto
          endchar
        </CharString>
        <CharString name="multiply">
          -18 183 20 callsubr
          386 38 callgsubr
          321 368 rmoveto
          191 164 52 callgsubr
          1 vvcurveto
          35 callgsubr
          -129 -111 -20 114 rlineto
          0 -1 14 -24 -15 -22 -2 -19 -2 vhcurveto
          -4 vlineto
          27 -151 -228 -196 rlineto
          -2 -3 45 callsubr
          vvcurveto
          35 callsubr
          166 143 26 -142 rlineto
          hintmask 01100000
          0 0 -14 24 vhcurveto
          hintmask 10100000
          14 23 1 19 2 hvcurveto
          4 vlineto
          endchar
        </CharString>
        <CharString name="n">
          -15 7 20 callsubr
          448 -80 callsubr
          hintmask 01100000
          36 callsubr
          endchar
        </CharString>
        <CharString name="nine">
          72 -58 30 339 51 385 27 hstem
          174 87 267 75 vstem
          528 686 rmoveto
          -107 -119 -217 -103 -29 -16 23 39 110 120 213 99 38 10 -31 -30 vhcurveto
          -53 -387 rmoveto
          64 112 64 117 118 vvcurveto
          84 -49 44 -78 -173 -129 -208 -151 -51 16 -53 66 66 57 46 38 38 vhcurveto
          0 7 5 3 -21 callsubr
          -2 -2 -1 callsubr
          -196 -418 -256 -2 -15 -3 -8 -18 51 -1 19 200 158 206 151 90 vhcurveto
          endchar
        </CharString>
        <CharString name="notequal">
          106 181 174 -45 45 59 45 -45 150 hstemhm
          hintmask 10100000
          557 414 -66 callgsubr
          -89 hlineto
          107 92 52 callgsubr
          1 vvcurveto
          hintmask 10010000
          35 callgsubr
          hintmask 10100000
          -108 -92 rlineto
          -186 -62 callgsubr
          153 hlineto
          -69 -59 rlineto
          -129 -12 callsubr
          96 hlineto
          -133 -114 rlineto
          -2 -3 45 callsubr
          vvcurveto
          hintmask 10100000
          35 callsubr
          hintmask 01100000
          133 115 rlineto
          180 hlineto
          -73 callsubr
          -146 hlineto
          68 59 rlineto
          endchar
        </CharString>
        <CharString name="ntilde">
          -15 7 20 callsubr
          482 53 -19 32 2 -80 callsubr
          hintmask 01001000
          36 callsubr
          124 431 -53 callsubr
          hintmask 10100000
          3 callgsubr
          hintmask 10010000
          -56 callsubr
          hintmask 10100000
          -26 callgsubr
        </CharString>
        <CharString name="numbersign">
          106 189 158 -45 45 75 45 -45 154 hstemhm
          hintmask 10100000
          582 422 -66 callgsubr
          -98 hlineto
          51 90 rlineto
          2 -60 callsubr
          hintmask 10010000
          11 -14 0 -8 -16 -8 -1 -19 -11 vhcurveto
          hintmask 10100000
          -50 -89 rlineto
          -94 hlineto
          51 90 rlineto
          2 -60 callsubr
          hintmask 10010000
          11 -14 0 -8 -16 -8 -1 -19 -11 vhcurveto
          hintmask 10100000
          -50 -89 rlineto
          -109 -62 callgsubr
          102 hlineto
          -42 -75 rlineto
          -105 -12 callsubr
          99 -17 callsubr
          93 -17 callsubr
          108 hlineto
          -73 callsubr
          -101 hlineto
          42 75 rlineto
          -147 hmoveto
          93 hlineto
          -42 -75 rlineto
          -93 hlineto
          endchar
        </CharString>
        <CharString name="o">
          -7 callsubr
          -89 callgsubr
          endchar
        </CharString>
        <CharString name="oacute">
          -75 callgsubr
          162 266 -100 callsubr
        </CharString>
        <CharString name="ocircumflex">
          -7 callsubr
          44 115 hstemhm
          18 callgsubr
          -47 100 hintmask 11111000
          -106 callsubr
          48 248 rmoveto
          -25 5 27 -57 22 hhcurveto
          hintmask 11110100
          -104 callsubr
        </CharString>
        <CharString name="odieresis">
          -7 callsubr
          55 98 hstemhm
          5 79 180 86 0 47 28 86 hintmask 11110110
          -106 callsubr
          -53 177 -61 callsubr
          hvcurveto
          hintmask 11111010
          -92 callgsubr
        </CharString>
        <CharString name="oe">
          115 -19 29 -29 64 -46 -21 438 23 48 callgsubr
          5 75 hintmask 01010100
          452 110 -84 callgsubr
          vhcurveto
          hintmask 10001100
          -26 -33 -10 -8 -19 hvcurveto
          -32 -13 -30 -19 -29 -24 rrcurveto
          44 -4 -25 32 -48 hhcurveto
          -80 -102 -73 -132 -75 hvcurveto
          -36 -62 -17 -59 -45 vvcurveto
          -49 25 -40 55 43 48 20 39 47 vhcurveto
          hintmask 00110100
          -44 -86 callsubr
          -320 103 rmoveto
          111 51 74 92 44 hhcurveto
          15 6 -12 -20 -38 -23 -66 -31 -67 hvcurveto
          hintmask 10010100
          -61 -133 -57 -69 -42 -1 rrcurveto
          -20 -8 14 23 37 21 61 31 68 hvcurveto
          365 126 -52 callsubr
          hvcurveto
          11 21 10 22 8 20 28 47 41 57 26 23 rrcurveto
          -56 callgsubr
          endchar
        </CharString>
        <CharString name="ogonek">
          -73 -21 92 -20 hstem
          151 35 vstem
          203 -3 rmoveto
          1 -3 -3 0 -3 hhcurveto
          -26 -17 -23 -23 -23 16 -23 38 10 12 2 4 14 hvcurveto
          6 2 32 callsubr
          vvcurveto
          3 -2 2 0 vhcurveto
          -1 -6 -6 -1 -5 hhcurveto
          -32 -12 21 20 14 6 14 11 5 hvcurveto
          endchar
        </CharString>
        <CharString name="ograve">
          -75 callgsubr
          67 172 -97 callgsubr
        </CharString>
        <CharString name="one">
          -150 3 -21 718 63 hstem
          67 30 rmoveto
          63 92 45 102 52 105 54 108 56 97 41 71 rrcurveto
          54 93 32 34 0 vvcurveto
          8 8 3 6 5 vvcurveto
          9 -11 3 0 -156 -74 -46 32 callgsubr
          -8 -8 -6 vvcurveto
          -4 4 -4 12 vhcurveto
          0 18 5 19 18 18 -5 -17 -9 -9 -56 -154 -256 vhcurveto
          -1 -3 -175 -309 -50 vvcurveto
          -6 2 -7 13 30 27 22 26 19 vhcurveto
          endchar
        </CharString>
        <CharString name="onehalf">
          390 -9 -21 32 62 728 -20 hstem
          778 75 vstem
          -79 callgsubr
          497 -151 rmoveto
          1 1 -39 callsubr
          3 -2 3 -5 -3 -4 -3 -4 -3 vhcurveto
          -33 -24 -51 -6 -39 hhcurveto
          -32 -17 4 0 hvcurveto
          -8 1 -1 5 3 vvcurveto
          40 125 98 91 72 vhcurveto
          61 48 66 53 74 vvcurveto
          60 -60 20 -45 -117 -18 -113 -2 -5 2 -5 5 3 4 3 7 7 callsubr
          39 59 55 29 24 -18 -30 -70 -121 -100 -44 -37 vhcurveto
          0 -177 -145 -44 -65 60 callsubr
          54 callgsubr
          -3 7 vhcurveto
          15 46 1 42 5 callsubr
          152 677 -43 callgsubr
        </CharString>
        <CharString name="onequarter">
          372 44 callgsubr
          570 -20 hstemhm
          hintmask 10010000
          -79 callgsubr
          527 -36 -70 callsubr
          hintmask 01110000
          -30 callsubr
          hintmask 10010000
          -79 callsubr
          116 313 rmoveto
          -15 callsubr
          -53 callgsubr
          hintmask 01110000
          -48 callgsubr
        </CharString>
        <CharString name="onesuperior">
          -85 237 -21 503 44 hstem
          -79 callgsubr
          endchar
        </CharString>
        <CharString name="ordfeminine">
          -50 386 20 callsubr
          316 -20 hstemhm
          hintmask 01100000
          314 418 rmoveto
          25 23 35 34 56 63 rrcurveto
          7 8 4 6 12 62 callgsubr
          33 callgsubr
          -2 -3 0 vhcurveto
          -30 -34 -25 -26 -17 -19 rrcurveto
          -7 -8 -31 -33 -12 hhcurveto
          -2 -2 1 3 21 74 124 17 31 hvcurveto
          56 callgsubr
          1 vvcurveto
          4 -4 1 -5 -37 -28 -47 0 vhcurveto
          -42 -69 -78 -66 0 vvcurveto
          -10 -11 -7 -2 -4 20 callgsubr
          4 4 11 9 19 1 3 hvcurveto
          78 39 78 103 95 hhcurveto
          11 7 3 4 5 -12 7 -28 -130 -95 -127 -96 -39 hvcurveto
          -4 -8 -13 -43 -19 vvcurveto
          -18 6 -5 9 13 18 12 9 11 vhcurveto
          0 61 51 47 53 vhcurveto
          1 1 7 7 3 hhcurveto
          -2 -8 rlineto
          0 -49 -84 -31 vvcurveto
          hintmask 10100000
          -5 2 -6 7 8 22 7 46 50 vhcurveto
          endchar
        </CharString>
        <CharString name="ordmasculine">
          -94 367 -21 322 -20 hstem
          106 53 169 50 vstem
          378 604 rmoveto
          37 -17 27 -38 -56 -71 -51 -93 -53 vhcurveto
          -25 -43 -12 -41 -32 vvcurveto
          -34 18 -28 38 57 68 50 93 54 vhcurveto
          24 43 13 41 31 vvcurveto
          -183 -96 rmoveto
          78 36 52 64 30 hhcurveto
          11 4 -8 -14 -27 -16 -46 -22 -47 hvcurveto
          -42 -93 -40 -48 -30 -1 rrcurveto
          -14 -5 10 16 26 14 43 22 47 hvcurveto
          endchar
        </CharString>
        <CharString name="oslash">
          -46 -34 -21 35 30 414 26 66 -20 hstem
          437 352 rmoveto
          -22 -1 -23 -8 -20 -6 156 163 rcurveline
          -15 callsubr
          -47 callsubr
          -77 -79 rlineto
          21 -5 -20 11 -29 hhcurveto
          -32 callsubr
          -17 2 -17 6 -14 hvcurveto
          -34 -36 -24 -25 0 callsubr
          12 18 18 vhcurveto
          -5 9 13 -4 15 hhcurveto
          -40 callgsubr
          hvcurveto
          -74 callsubr
          -88 18 rmoveto
          -77 -81 -100 -103 -79 -84 rrcurveto
          123 34 124 199 71 hhcurveto
          18 10 -14 -28 -4 0 12 callgsubr
          hvcurveto
          -265 -333 rmoveto
          51 53 72 74 70 74 rrcurveto
          -110 -25 -90 -118 -51 hhcurveto
          -15 -9 10 17 -3 hvcurveto
          endchar
        </CharString>
        <CharString name="otilde">
          -7 callsubr
          35 16 callgsubr
          18 callgsubr
          hintmask 11001110
          -106 callsubr
          138 216 -53 callsubr
          hintmask 11100110
          3 callgsubr
          hintmask 11010110
          -56 callsubr
          hintmask 11100110
          -26 callgsubr
        </CharString>
        <CharString name="p">
          42 callsubr
          506 -20 hstemhm
          296 85 hintmask 11011000
          37 36 -34 callsubr
          213 462 rmoveto
          -38 -106 -206 0 hvcurveto
          -29 callsubr
          hintmask 10111000
          -34 callgsubr
          -1 hhcurveto
          -1 -1 2 1 2 1 2 0 hvcurveto
          0 66 127 32 vvcurveto
          7 -3 1 -4 vhcurveto
          endchar
        </CharString>
        <CharString name="paragraph">
          -8 -49 -21 791 -20 hstem
          596 695 rmoveto
          22 -65 1 -10 vhcurveto
          2 -16 -18 1 -17 hhcurveto
          -159 -187 -89 -166 -46 19 -55 82 -19 hvcurveto
          0 11 -1 -8 vvcurveto
          -2 0 -2 -2 24 callgsubr
          -183 -309 -67 vvcurveto
          -10 9 -10 7 4 53 callgsubr
          0 55 127 81 151 vhcurveto
          107 198 144 240 33 19 rrcurveto
          0 10 4 8 5 4 -1 -5 -2 -1 -4 -2 -1 callsubr
          -378 -611 -106 vvcurveto
          -6 11 -16 10 5 4 3 11 7 callsubr
          20 81 77 144 vhcurveto
          93 175 167 298 46 33 rrcurveto
          0 16 8 12 vvcurveto
          endchar
        </CharString>
        <CharString name="parenleft">
          -179 -17 -21 820 -20 hstem
          47 47 vstem
          94 24 rmoveto
          195 153 242 0 vhcurveto
          135 246 151 58 0 vvcurveto
          8 6 3 3 3 vvcurveto
          4 -9 1 -6 -4 -2 -29 callgsubr
          -207 -30 -165 -316 0 0 -104 -178 -162 vvcurveto
          -27 11 -107 32 4 4 4 9 vhcurveto
          0 -4 16 33 vvcurveto
          endchar
        </CharString>
        <CharString name="parenright">
          -123 -17 -21 821 -20 hstem
          355 48 vstem
          353 763 rmoveto
          2 -13 0 -14 -14 vvcurveto
          -195 -153 -243 0 vhcurveto
          -134 -246 -152 -58 0 vvcurveto
          -8 -6 -3 -3 -3 vvcurveto
          -5 7 -1 6 184 180 318 31 18 vhcurveto
          11 19 92 167 152 vvcurveto
          28 -10 106 -34 -4 -3 -3 -9 vhcurveto
          -2 1 -3 -3 vvcurveto
          endchar
        </CharString>
        <CharString name="percent">
          209 -13 callgsubr
          hintmask 0111011111000000
          -51 callgsubr
          hintmask 1011101111000000
          -65 callgsubr
          endchar
        </CharString>
        <CharString name="period">
          -221 -8 116 hstem
          0 102 vstem
          30 -8 rmoveto
          -70 callgsubr
          endchar
        </CharString>
        <CharString name="periodcentered">
          -240 177 116 hstem
          40 102 vstem
          70 177 rmoveto
          -70 callgsubr
          endchar
        </CharString>
        <CharString name="perthousand">
          474 -13 callgsubr
          -32 32 -32 64 194 57 hintmask 0111011111001000
          -51 callgsubr
          hintmask 1011101110101000
          -65 callgsubr
          383 -438 17 callgsubr
          2 callsubr
          hvcurveto
          hintmask 1011101110011000
          -57 callsubr
          endchar
        </CharString>
        <CharString name="plus">
          47 189 218 -45 45 169 38 callgsubr
          455 557 -25 callgsubr
          -84 -149 rlineto
          -145 -12 callsubr
          139 hlineto
          -87 -155 33 callsubr
          8 -2 13 40 6 19 0 vhcurveto
          hintmask 01100000
          86 154 rlineto
          146 -19 callsubr
          endchar
        </CharString>
        <CharString name="plusminus">
          96 189 45 37 174 -45 45 131 -20 hstemhm
          hintmask 11010000
          483 557 -25 callgsubr
          -63 -111 rlineto
          -145 -44 callgsubr
          hvcurveto
          hintmask 10110000
          -27 callsubr
          vhcurveto
          139 hlineto
          -61 -111 -18 callgsubr
          hintmask 11010000
          -10 callsubr
          hintmask 10110000
          60 110 rlineto
          146 -19 callsubr
          26 -256 -63 callgsubr
          endchar
        </CharString>
        <CharString name="q">
          -17 -554 -21 588 -21 505 -20 hstem
          -12 105 vstem
          51 -307 rmoveto
          52 104 53 103 57 102 111 89 91 89 49 54 -106 callgsubr
          -66 -77 -82 -76 -84 -68 29 51 29 52 31 52 rrcurveto
          24 40 111 198 13 callsubr
          6 -2 5 -7 -29 -54 -73 6 callgsubr
          -5 -3 13 -35 hhcurveto
          -174 -176 -281 -121 -14 5 -26 20 9 16 4 22 28 hvcurveto
          0 92 75 69 77 vhcurveto
          0 7 8 4 -11 callsubr
          -2 -2 -1 -2 -1 -1 callsubr
          -31 -63 -77 -137 vhcurveto
          -30 -22 -30 -21 -28 -19 rrcurveto
          -13 -9 -10 -11 -7 vvcurveto
          -3 2 -2 4 1 57 callgsubr
          vhcurveto
          25 16 26 16 25 17 -104 -180 rcurveline
          0 -152 -248 -58 vvcurveto
          -7 4 -5 7 22 59 51 217 109 vhcurveto
          317 706 rmoveto
          -91 -173 -142 -120 0 vvcurveto
          -13 -16 -11 -3 -6 hhcurveto
          -6 -3 5 7 51 157 257 102 26 callsubr
        </CharString>
        <CharString name="question">
          -1 -3 119 606 27 hstem
          34 101 140 47 221 83 vstem
          105 116 rmoveto
          51 callgsubr
          50 callsubr
          hvcurveto
          376 633 rmoveto
          -93 -113 -67 -95 -44 29 -25 0 hvcurveto
          -2 3 3 0 2 hhcurveto
          9 1 10 0 hvcurveto
          93 5 69 103 92 hhcurveto
          54 1 -52 0 -93 -93 -83 0 hvcurveto
          -137 -130 -99 -3 -54 -82 rrcurveto
          -21 -32 -5 -37 -19 vvcurveto
          -17 3 -9 7 4 5 2 5 5 vhcurveto
          0 38 36 34 59 vhcurveto
          0 52 88 145 71 vhcurveto
          88 43 111 57 106 vvcurveto
          84 -59 33 -86 vhcurveto
          endchar
        </CharString>
        <CharString name="questiondown">
          -54 -273 27 725 -20 hstem
          -183 83 220 48 vstem
          403 415 rmoveto
          4 11 2 9 9 vvcurveto
          19 -9 14 -17 2 vhcurveto
          -3 hlineto
          -24 -30 -23 -32 -12 hvcurveto
          -5 -11 -2 -10 -9 vvcurveto
          -19 10 -14 16 -1 vhcurveto
          4 hlineto
          24 29 24 31 13 hvcurveto
          -441 -688 rmoveto
          92 114 66 95 44 -30 26 0 hvcurveto
          2 -3 -3 0 -2 hhcurveto
          -9 -1 -10 0 hvcurveto
          -96 -4 -65 -100 -95 hhcurveto
          -54 -2 53 4 88 92 83 0 hvcurveto
          78 74 108 56 0 vvcurveto
          70 40 60 51 80 vvcurveto
          10 -1 7 0 vhcurveto
          9 -1 -4 2 -4 hhcurveto
          -7 -7 -7 0 0 -38 -35 -33 -60 hvcurveto
          0 -52 -88 -146 -71 vhcurveto
          -87 -42 -111 -59 -105 vvcurveto
          -88 73 -29 72 vhcurveto
          endchar
        </CharString>
        <CharString name="quotedbl">
          -148 -33 callgsubr
          107 hmoveto
          -48 callsubr
          endchar
        </CharString>
        <CharString name="quotedblbase">
          -91 -72 -21 201 -20 hstem
          8 101 18 -60 callgsubr
          119 hmoveto
          -36 callsubr
        </CharString>
        <CharString name="quotedblleft">
          -77 614 152 -38 callgsubr
          115 hmoveto
          15 49 51 73 48 callsubr
          15 callgsubr
          -11 0 -2 vhcurveto
          -56 -4 -8 -23 0 0 -24 -40 -38 vvcurveto
          -12 5 -35 18 3 53 callgsubr
          endchar
        </CharString>
        <CharString name="quotedblright">
          -134 637 -21 146 -20 hstem
          397 744 rmoveto
          -4 callsubr
          -3 -30 3 0 -32 -63 -26 14 callsubr
          2 -3 5 2 2 1 callgsubr
          121 hmoveto
          -38 callsubr
        </CharString>
        <CharString name="quoteleft">
          -192 635 -21 152 -20 -38 callgsubr
          endchar
        </CharString>
        <CharString name="quoteright">
          -254 637 -21 146 -20 hstem
          398 744 rmoveto
          -38 callsubr
        </CharString>
        <CharString name="quotesinglbase">
          -49 callgsubr
        </CharString>
        <CharString name="quotesingle">
          -255 -33 callgsubr
          endchar
        </CharString>
        <CharString name="r">
          -102 -3 -21 380 89 6 -20 hstemhm
          305 103 hintmask 10110000
          251 207 rmoveto
          30 2 34 32 4 3 rrcurveto
          59 54 30 77 43 vvcurveto
          20 -6 13 -13 -20 -29 -21 -3 -3 vhcurveto
          -84 -66 -75 -85 0 vvcurveto
          -3 47 callgsubr
          -1 hhcurveto
          -1 -1 0 2 1 1 3 1 3 hvcurveto
          14 37 80 104 17 vvcurveto
          hintmask 11010000
          4 -2 3 -7 -51 -47 -58 -57 -30 vhcurveto
          0 -66 -112 -39 -71 vhcurveto
          -1 -82 -142 -21 vvcurveto
          -5 7 -2 7 39 36 37 28 14 vhcurveto
          0 38 84 75 95 vhcurveto
          27 22 92 109 27 hhcurveto
          4 3 -3 -6 -30 -34 -57 -25 -39 hvcurveto
          -2 -3 -6 callgsubr
          -4 2 -2 6 vhcurveto
          endchar
        </CharString>
        <CharString name="registered">
          13 137 -21 270 46 hstemhm
          84 24 -24 133 -19 144 -25 25 45 23 hintmask 11101010
          -41 callgsubr
          -121 -129 rmoveto
          -1 6 -11 18 3 4 0 2 0 0 1 -2 1 vhcurveto
          -22 21 0 89 12 vvcurveto
          4 callgsubr
          0 vhcurveto
          24 6 43 25 30 vvcurveto
          29 -45 5 -22 -39 -38 -14 -26 -12 11 -9 6 -3 vhcurveto
          -1 1 3 -2 2 hhcurveto
          1 1 1 1 hvcurveto
          1 -1 1 1 vvcurveto
          hintmask 11010110
          -3 6 -2 5 5 vvcurveto
          26 33 13 23 18 26 -7 -23 -29 -33 -23 -29 -3 vhcurveto
          0 -3 40 callsubr
          0 -7 -10 vvcurveto
          -27 1 -54 13 -19 vhcurveto
          -63 46 rmoveto
          16 37 56 98 1 vvcurveto
          2 3 1 2 1 vvcurveto
          1 -2 1 -1 -5 -11 -5 -14 -10 vhcurveto
          0 -19 -28 -30 -53 vhcurveto
          -18 -32 -27 -52 -4 -11 rrcurveto
          0 -1 -2 -1 vvcurveto
          -3 1 -1 2 vhcurveto
          1 1 1 1 hhcurveto
          0 27 11 20 46 vhcurveto
          endchar
        </CharString>
        <CharString name="ring">
          492 124 hstem
          355 32 50 32 vstem
          389 492 -58 callgsubr
        </CharString>
        <CharString name="s">
          -121 -26 24 472 -20 -73 callgsubr
          endchar
        </CharString>
        <CharString name="scaron">
          -121 -26 24 516 115 -73 callgsubr
          60 433 -87 callgsubr
        </CharString>
        <CharString name="section">
          50 8 -21 736 27 hstemhm
          121 84 40 103 -56 94 48 94 hintmask 11110100
          11 -10 rmoveto
          -2 10 11 -1 13 hhcurveto
          106 197 69 105 43 -48 49 0 hvcurveto
          -2 2 -1 2 1 vvcurveto
          4 6 2 0 vhcurveto
          54 21 171 71 75 vvcurveto
          hintmask 11101100
          87 -142 52 54 vvcurveto
          74 159 25 57 vhcurveto
          0 11 3 7 vvcurveto
          3 -2 4 -7 7 callsubr
          -23 6 -37 -74 -178 -43 -94 -41 41 -27 27 -28 vhcurveto
          0 4 -2 -2 vvcurveto
          -2 -2 -1 -6 -2 vhcurveto
          -10 -4 -225 -49 -93 vvcurveto
          hintmask 11110100
          -74 124 -61 -76 vvcurveto
          -85 -154 -48 -75 -10 vhcurveto
          0 -11 -3 -6 vvcurveto
          -2 1 -6 5 -1 vhcurveto
          266 294 rmoveto
          -15 -57 60 34 4 1 3 0 hvcurveto
          25 71 124 27 21 2 rrcurveto
          14 6 -8 0 hvcurveto
          24 -25 14 -25 -17 vvcurveto
          -64 -98 -42 -59 -20 vhcurveto
          endchar
        </CharString>
        <CharString name="semicolon">
          -178 -72 -21 407 116 hstem
          8 101 78 102 vstem
          217 314 rmoveto
          -70 callgsubr
          -239 -403 rmoveto
          -36 callsubr
        </CharString>
        <CharString name="seven">
          -28 4 -21 812 -20 hstem
          131 129 rmoveto
          21 42 38 67 0 vvcurveto
          82 150 170 172 0 vvcurveto
          41 42 33 34 24 28 rrcurveto
          19 23 57 62 34 vvcurveto
          6 -4 6 -8 -24 -49 -45 0 vhcurveto
          -4 -4 12 callgsubr
          hhcurveto
          6 -42 -28 2 -124 hhcurveto
          -67 -28 -93 0 0 0 -11 10 3 4 1 3 5 hvcurveto
          0 34 17 87 23 28 -1 -3 31 vhcurveto
          0 13 -1 -10 vvcurveto
          -29 -91 -95 -30 -28 vhcurveto
          -71 -67 -268 -225 -167 vvcurveto
          -10 6 -51 17 27 59 118 28 14 vhcurveto
          endchar
        </CharString>
        <CharString name="six">
          42 -11 29 406 50 317 -20 hstem
          36 84 278 90 vstem
          353 424 rmoveto
          30 15 -26 -41 -121 -139 -218 -84 -40 -15 39 33 33 11 44 23 53 hvcurveto
          126 56 87 78 56 hhcurveto
          135 -52 rmoveto
          61 -36 41 -53 -77 -83 -83 0 vhcurveto
          -5 -4 -3 -1 -20 callgsubr
          2 17 callsubr
          192 373 182 1 0 vvcurveto
          8 3 3 4 4 -3 4 -5 3 hvcurveto
          3 -11 -12 1 -11 hhcurveto
          -263 -273 -494 -186 -55 20 -67 103 188 141 226 157 hvcurveto
          endchar
        </CharString>
        <CharString name="slash">
          -187 -9 -21 822 -20 hstem
          707 776 -43 callgsubr
        </CharString>
        <CharString name="space">
          -214 endchar
        </CharString>
        <CharString name="sterling">
          25 -22 29 336 31 39 31 325 -20 hstem
          419 344 rmoveto
          29 callsubr
          -100 hlineto
          21 39 rlineto
          76 77 0 1 6 hvcurveto
          29 callsubr
          -101 hlineto
          48 89 37 67 -43 callsubr
          -37 -54 -34 -54 -32 -53 rrcurveto
          -37 13 callgsubr
          57 hlineto
          -23 -40 rlineto
          -36 13 callgsubr
          56 hlineto
          -105 -190 -61 -149 -50 callgsubr
          -62 callsubr
          26 69 64 127 61 117 rrcurveto
          75 76 0 1 6 hvcurveto
          endchar
        </CharString>
        <CharString name="t">
          -204 2 -21 693 -21 182 -20 hstem
          174 151 rmoveto
          -42 -44 -23 -22 -14 20 callgsubr
          2 5 18 30 60 12 22 hvcurveto
          67 120 110 214 66 125 rrcurveto
          94 hlineto
          12 17 5 11 4 -6 1 -3 hvcurveto
          -103 hlineto
          34 62 rlineto
          21 38 17 36 16 61 callgsubr
          3 -5 -12 -31 -39 0 vhcurveto
          -28 -36 -28 -42 -28 -44 rrcurveto
          -1 -55 -18 0 -4 hhcurveto
          -12 -13 -9 -6 -3 3 -2 7 hvcurveto
          79 hlineto
          -100 -160 -98 -194 -74 -132 rrcurveto
          0 -64 -120 -48 vvcurveto
          -13 6 -5 8 38 93 89 27 28 vhcurveto
          -103 callgsubr
          endchar
        </CharString>
        <CharString name="thorn">
          42 callsubr
          934 -20 hstemhm
          296 85 hintmask 10111000
          481 832 rmoveto
          11 callsubr
          -81 -103 -129 -228 -75 -133 rrcurveto
          -38 -59 -37 -72 0 vvcurveto
          -29 callsubr
          -34 callgsubr
          -2 hhcurveto
          84 147 206 361 0 vvcurveto
          -444 -796 -34 callsubr
          endchar
        </CharString>
        <CharString name="three">
          37 -70 37 737 59 hstem
          318 99 42 102 vstem
          -44 -47 rmoveto
          -18 23 36 -5 32 hhcurveto
          215 155 180 154 110 -86 51 0 hvcurveto
          -4 2 -1 2 2 vvcurveto
          5 9 5 0 vhcurveto
          96 27 130 70 120 vvcurveto
          69 -58 36 -73 -137 -41 -89 -1 -4 1 -11 8 46 callgsubr
          3 7 callsubr
          55 42 55 48 30 -32 -48 -120 -162 -64 -109 -3 -6 -1 -5 -4 vhcurveto
          -3 -4 -2 -4 -4 vvcurveto
          -4 2 -3 6 41 callsubr
          140 -19 -126 vvcurveto
          -157 -159 -145 -146 -15 -15 2 3 -16 vhcurveto
          0 -18 -1 -8 vvcurveto
          -3 2 -3 5 -4 vhcurveto
          endchar
        </CharString>
        <CharString name="threequarters">
          441 44 callgsubr
          -26 26 516 41 13 -20 hstemhm
          321 69 30 71 hintmask 10001011
          796 214 -70 callsubr
          hintmask 01101011
          -30 callsubr
          hintmask 10001011
          -79 callsubr
          -734 -251 rmoveto
          hintmask 01011011
          -68 callgsubr
          850 564 rmoveto
          -15 callsubr
          hintmask 01100111
          -59 callsubr
        </CharString>
        <CharString name="threesuperior">
          -43 196 26 516 41 hstem
          321 69 30 71 vstem
          68 212 rmoveto
          -68 callgsubr
          endchar
        </CharString>
        <CharString name="tilde">
          -15 469 16 callgsubr
          hintmask 00100000
          458 528 -53 callsubr
          hintmask 10000000
          3 callgsubr
          hintmask 01000000
          -56 callsubr
          hintmask 10000000
          -26 callgsubr
        </CharString>
        <CharString name="trademark">
          60 232 207 -196 -21 229 -20 hstemhm
          128 28 0 214 hintmask 10010000
          246 327 rmoveto
          -2 -1 -2 0 hvcurveto
          -32 -10 -27 -48 -34 hhcurveto
          -13 -3 13 12 68 73 64 18 7 hvcurveto
          3 2 1 1 1 62 callgsubr
          44 callsubr
          -2 -29 callgsubr
          -16 -4 -21 -13 -21 -19 rrcurveto
          0 0 0 32 callgsubr
          -13 10 13 vvcurveto
          21 24 10 17 vhcurveto
          25 22 -13 25 hhcurveto
          15 13 9 11 7 hvcurveto
          1 1 0 1 1 vvcurveto
          1 0 40 callgsubr
          -1 -29 callgsubr
          -4 -5 -9 -1 -8 -20 -14 5 -23 hhcurveto
          -52 -34 -26 -18 -14 17 -9 12 -2 hvcurveto
          -30 -28 -26 -41 -39 vvcurveto
          -19 7 -16 20 39 39 40 30 15 vhcurveto
          0 4 6 7 vvcurveto
          5 -3 7 -3 vhcurveto
          241 114 rmoveto
          1 2 1 2 1 62 callgsubr
          0 -2 vhcurveto
          -1 -1 0 -2 hhcurveto
          -43 -12 -90 -116 0 vvcurveto
          -2 -2 -1 -1 -1 hhcurveto
          -1 0 3 2 14 8 102 0 hvcurveto
          hintmask 01101000
          3 0 10 -4 -6 -11 -31 0 0 -5 -9 -10 -17 vhcurveto
          0 -80 -131 -6 -32 vhcurveto
          0 44 callsubr
          vvcurveto
          -1 0 -1 1 1 2 1 1 2 vhcurveto
          0 20 13 21 55 vhcurveto
          9 24 20 44 18 26 rrcurveto
          0 2 3 1 1 0 -1 -2 -1 -9 -78 -5 -40 vhcurveto
          0 0 -6 3 1 3 2 5 3 vhcurveto
          0 69 96 37 29 vhcurveto
          1 1 1 1 1 hhcurveto
          1 40 callgsubr
          hvcurveto
          0 40 callgsubr
          vvcurveto
          -25 -42 -39 -67 -35 vvcurveto
          -20 11 -9 5 2 0 2 2 vhcurveto
          2 0 2 1 vvcurveto
          7 2 23 26 54 vhcurveto
          0 38 80 33 46 vhcurveto
          endchar
        </CharString>
        <CharString name="two">
          17 -4 88 -69 -21 693 80 hstemhm
          473 108 hintmask 10110000
          358 134 rmoveto
          1 2 -54 callsubr
          5 -3 4 -6 -5 -6 -4 -6 -4 vhcurveto
          -47 -34 -73 -9 -56 hhcurveto
          -45 -35 22 callsubr
          -11 1 -2 7 5 vvcurveto
          61 290 224 35 23 vhcurveto
          85 58 91 84 100 vvcurveto
          85 -86 29 -64 -167 -26 -162 -3 -7 3 -6 6 5 5 4 9 6 vhcurveto
          0 56 85 78 42 34 -26 -42 -101 -173 -143 -62 -52 vhcurveto
          0 -253 -208 -63 -93 vhcurveto
          0 -5 -9 -8 vvcurveto
          hintmask 01110000
          -6 3 -5 11 vhcurveto
          hintmask 10110000
          21 65 2 61 hhcurveto
          hintmask 01110000
          48 35 -2 35 hhcurveto
          42 37 2 10 11 hvcurveto
          0 32 19 40 109 vhcurveto
          endchar
        </CharString>
        <CharString name="twosuperior">
          -29 239 62 -42 -21 485 56 hstemhm
          470 75 hintmask 10110000
          389 336 rmoveto
          1 1 -39 callsubr
          3 -2 3 -5 -3 -4 -3 -4 -3 vhcurveto
          -33 -24 -51 -6 -39 hhcurveto
          -32 -17 4 0 hvcurveto
          -8 1 -1 5 3 vvcurveto
          40 125 98 91 72 vhcurveto
          61 48 66 53 74 vvcurveto
          60 -60 20 -45 -117 -18 -113 -2 -5 2 -5 5 3 4 3 7 7 callsubr
          39 59 55 29 24 -18 -30 -70 -121 -100 -44 -37 vhcurveto
          0 -177 -145 -44 -65 60 callsubr
          -7 -5 vvcurveto
          hintmask 01110000
          -5 2 -3 7 vhcurveto
          hintmask 10110000
          15 46 1 42 hhcurveto
          hintmask 01110000
          5 callsubr
          endchar
        </CharString>
        <CharString name="u">
          16 callsubr
          452 -20 -102 callgsubr
          endchar
        </CharString>
        <CharString name="uacute">
          16 callsubr
          623 -20 -102 callgsubr
          232 374 -100 callsubr
        </CharString>
        <CharString name="ucircumflex">
          16 callsubr
          508 115 -102 callgsubr
          138 356 -104 callgsubr
        </CharString>
        <CharString name="udieresis">
          16 callsubr
          519 98 hstemhm
          265 28 callgsubr
          hintmask 01111000
          -105 callsubr
          hintmask 10111000
          -67 callsubr
          33 285 -94 callsubr
        </CharString>
        <CharString name="ugrave">
          16 callsubr
          623 -20 -102 callgsubr
          131 280 -97 callgsubr
        </CharString>
        <CharString name="underscore">
          228 -78 45 hstem
          454 -78 rmoveto
          29 3 35 19 14 vvcurveto
          4 -6 5 -25 vhcurveto
          -480 hlineto
          -29 -36 -25 -10 -4 5 -6 25 hvcurveto
          endchar
        </CharString>
        <CharString name="v">
          -98 -5 -21 211 24 259 -20 hstem
          221 197 vstem
          418 463 rmoveto
          -13 callsubr
          -3 0 vhcurveto
          -54 -77 -43 -31 0 vvcurveto
          -5 -6 -4 -2 -2 hhcurveto
          -4 0 11 0 hvcurveto
          21 128 87 181 23 callsubr
          6 5 10 5 0 callgsubr
          3 -5 -34 -24 -18 -33 -21 vhcurveto
          -20 -32 -108 -261 -101 vvcurveto
          -9 2 -10 10 6 7 3 9 12 vhcurveto
          0 64 50 125 152 vhcurveto
          0 32 callsubr
          vhcurveto
          3 10 -6 22 hhcurveto
          38 41 19 29 26 hvcurveto
          8 9 16 15 14 vvcurveto
          3 -1 7 -4 -1 -1 40 callgsubr
          vhcurveto
          -38 -32 -35 -33 -42 hhcurveto
          -7 -19 0 7 1 -17 callgsubr
          3 hvcurveto
          50 callgsubr
          endchar
        </CharString>
        <CharString name="w">
          69 -6 -21 210 22 263 -20 hstem
          9 96 283 197 vstem
          405 188 rmoveto
          0 32 callsubr
          vhcurveto
          -5 12 13 -3 14 hhcurveto
          34 37 16 34 30 hvcurveto
          8 9 16 15 14 vvcurveto
          5 -2 6 -3 -1 -1 -1 -1 -1 vhcurveto
          -45 -38 -38 -30 -32 hhcurveto
          -8 -8 2 4 -8 hvcurveto
          -2 1 -1 2 2 vvcurveto
          1 -17 callgsubr
          3 vhcurveto
          50 callgsubr
          -13 callsubr
          -4 0 vhcurveto
          -32 -20 -79 -85 -9 hhcurveto
          -2 -1 2 4 2 0 2 1 4 hvcurveto
          22 128 87 181 0 vvcurveto
          5 10 4 8 4 vvcurveto
          4 -5 2 -7 -18 -32 -13 -38 -23 vhcurveto
          0 -21 -44 -27 -63 vhcurveto
          -35 -83 -109 -100 0 vvcurveto
          -8 -7 -5 -3 -20 callgsubr
          3 64 88 209 22 46 hvcurveto
          3 6 5 10 6 0 callgsubr
          2 -5 -34 -29 -25 -26 -14 vhcurveto
          -56 -105 -74 -224 -67 25 callsubr
          64 51 114 142 vhcurveto
          0 2 3 4 vhcurveto
          -18 -58 -28 -101 -32 25 callsubr
          63 50 123 152 vhcurveto
          endchar
        </CharString>
        <CharString name="x">
          -62 -26 -21 42 77 327 50 6 -20 hstemhm
          140 57 hintmask 11101000
          253 63 rmoveto
          34 32 51 49 81 90 -106 callgsubr
          -43 -49 -35 -38 -25 -26 rrcurveto
          -22 -21 -62 -65 -15 hhcurveto
          -26 -3 69 53 30 1 29 2 30 hvcurveto
          18 17 20 17 22 18 rrcurveto
          0 70 64 45 vhcurveto
          22 2 -20 11 hhcurveto
          4 1 1 3 4 vvcurveto
          12 -7 50 -19 -10 -12 -7 -5 -10 vhcurveto
          -36 -20 -58 -49 -61 -57 rrcurveto
          2 35 2 34 35 vvcurveto
          hintmask 11011000
          20 -2 20 -14 -20 -42 -26 -17 -2 1 -1 1 41 callsubr
          10 -9 -52 vvcurveto
          -18 -4 -38 -4 -46 vhcurveto
          -103 -100 -95 -101 0 0 -12 -12 -26 vvcurveto
          -11 6 -42 13 4 6 3 16 5 vhcurveto
          0 35 99 139 144 vhcurveto
          -2 -34 -2 -35 -32 vvcurveto
          -81 7 -38 25 19 30 24 44 46 vhcurveto
          endchar
        </CharString>
        <CharString name="y">
          27 callgsubr
          451 -20 hstem
          -190 30 -99 callgsubr
          endchar
        </CharString>
        <CharString name="yacute">
          27 callgsubr
          622 -20 hstem
          -190 30 -99 callgsubr
          560 882 -100 callsubr
        </CharString>
        <CharString name="ydieresis">
          27 callgsubr
          518 98 hstem
          -190 30 414 28 callgsubr
          -99 callgsubr
          371 793 -94 callsubr
        </CharString>
        <CharString name="yen">
          57 -11 -21 353 30 41 30 370 -20 hstem
          262 96 vstem
          429 322 rmoveto
          14 2 12 12 8 vvcurveto
          7 -10 0 -4 vhcurveto
          -103 hlineto
          30 41 rlineto
          56 44 0 1 3 hvcurveto
          14 3 12 12 58 callgsubr
          -8 0 -3 vhcurveto
          -94 hlineto
          119 148 132 96 0 vvcurveto
          44 35 58 40 25 24 rrcurveto
          7 7 4 7 5 vvcurveto
          5 -4 3 -8 -3 callsubr
          -150 -191 0 vvcurveto
          -2 -3 -1 0 -3 hhcurveto
          -6 0 22 callsubr
          16 98 3 91 61 vvcurveto
          48 -2 29 0 vhcurveto
          23 -9 4 -7 -16 -62 -7 -26 vhcurveto
          -3 1 -4 -5 vvcurveto
          2 -32 4 -42 -46 vvcurveto
          -65 -5 -71 -10 -59 vhcurveto
          -81 36 callgsubr
          88 hlineto
          -4 -16 -5 -14 -5 -12 rrcurveto
          -103 36 callgsubr
          103 hlineto
          -27 -53 -93 -175 -69 -104 rrcurveto
          -36 callgsubr
          35 67 120 215 48 callsubr
          4 rlineto
          60 48 0 1 3 hvcurveto
          endchar
        </CharString>
        <CharString name="z">
          34 callsubr
          hstemhm
          hintmask 10110000
          -64 callsubr
          hintmask 11010000
          -55 callsubr
          endchar
        </CharString>
        <CharString name="zcaron">
          34 callsubr
          58 115 hstemhm
          hintmask 10111000
          -64 callsubr
          hintmask 11011000
          -55 callsubr
          -95 109 -87 callgsubr
        </CharString>
        <CharString name="zero">
          139 -18 46 703 35 hstem
          57 102 430 91 vstem
          526 731 rmoveto
          43 20 -34 -56 -149 -195 -464 -175 -40 -20 37 58 205 222 403 145 hvcurveto
          32 35 rmoveto
          -73 -71 -29 -47 -64 hvcurveto
          -170 -125 -123 -289 -142 vvcurveto
          -92 37 -60 73 215 298 379 252 92 -41 61 -81 vhcurveto
          endchar
        </CharString>
      <CharString index="0">
        291 63 rmoveto
        35 32 50 49 81 90 -106 callgsubr
        -43 -49 -35 -38 -25 -26 rrcurveto
        -11 -11 -44 -47 -18 20 callgsubr
        2 4 30 105 177 25 45 hvcurveto
        2 3 -39 callsubr
        5 -6 2 -7 -53 -40 -67 0 vhcurveto
        -61 -99 -111 -94 0 vvcurveto
        -14 -14 callsubr
        -5 -2 5 6 16 12 27 2 4 hvcurveto
        112 55 112 147 136 hhcurveto
        16 9 4 6 8 -17 9 -39 -187 -135 -181 -138 -56 hvcurveto
        -5 -11 -19 -62 -26 vvcurveto
        -26 9 -8 13 18 25 17 13 17 vhcurveto
        0 87 74 67 75 vhcurveto
        4 4 8 7 -39 callgsubr
        46 callsubr
        hvcurveto
        0 -71 -120 -44 vvcurveto
        return
      </CharString>
      <CharString index="1">
        rrcurveto
        9 11 6 9 17 vvcurveto
        3 -1 1 -1 -2 -3 -3 0 vhcurveto
        return
      </CharString>
      <CharString index="2">
        -24 callsubr
        hintmask 10111010
        -89 callsubr
        hintmask 11011100
        -100 callgsubr
        hintmask 10111100
        -93 callsubr
        return
      </CharString>
      <CharString index="3">
        rmoveto
        -25 5 27 -57 22 hhcurveto
        -104 callsubr
      </CharString>
      <CharString index="4">
        32 31 42 43 57 63 -106 callgsubr
        -48 -55 -37 -40 -26 -26 rrcurveto
        return
      </CharString>
      <CharString index="5">
        hstemhm
        hintmask 01100000
        -105 callsubr
        hintmask 10100000
        -67 callsubr
        return
      </CharString>
      <CharString index="6">
        vstem
        275 339 -78 callgsubr
        -45 -229 -84 callsubr
        -138 -55 -122 -184 -140 vvcurveto
        -46 -86 callsubr
        return
      </CharString>
      <CharString index="7">
        -75 callsubr
        29 vvcurveto
        102 43 174 49 147 vhcurveto
        -86 callgsubr
        -72 callgsubr
        return
      </CharString>
      <CharString index="8">
        vstem
        215 142 rmoveto
        -17 -33 -31 -61 -40 -73 -92 -76 -87 -83 -65 -106 -85 callgsubr
        19 34 74 127 24 44 rrcurveto
        0 8 14 5 -6 callsubr
        -7 -27 -40 -98 callsubr
        -40 -53 -84 -157 0 0 -64 -117 -45 vvcurveto
        -10 5 -8 9 10 26 5 66 70 vhcurveto
        0 79 69 -57 callgsubr
        0 -16 -31 -26 -51 hvcurveto
        -307 -430 rmoveto
        50 81 70 70 72 63 -63 -117 -79 -139 -52 callgsubr
        return
      </CharString>
      <CharString index="9">
        vstem
        138 -95 callsubr
        -32 -39 -28 -32 -22 vhcurveto
        -71 callgsubr
        return
      </CharString>
      <CharString index="10">
        rmoveto
        -4 27 -1 30 19 vvcurveto
        13 0 9 0 vhcurveto
        5 -2 6 -9 vhcurveto
        0 -47 0 -7 -8 0 -10 0 0 19 -71 41 -28 vhcurveto
        28 callsubr
        -4 4 hhcurveto
        3 2 2 4 hvcurveto
        endchar
      </CharString>
      <CharString index="11">
        hstem
        1 89 -101 callgsubr
        return
      </CharString>
      <CharString index="12">
        hstem
        0 102 440 101 vstem
        -99 callsubr
        return
      </CharString>
      <CharString index="13">
        hintmask 01110000
        -107 callgsubr
        hintmask 10110000
        -45 callgsubr
        return
      </CharString>
      <CharString index="14">
        10 17 0 vvcurveto
        85 154 51 63 8 callgsubr
        20 40 2 13 hhcurveto
        4 hlineto
        69 13 -46 -36 -22 -5 -19 0 hvcurveto
        -10 4 -3 5 4 4 32 callsubr
        vhcurveto
        34 47 33 83 48 callsubr
        -45 callsubr
        13 -15 -29 callgsubr
        4 return
      </CharString>
      <CharString index="15">
        -71 callsubr
        -83 callgsubr
      </CharString>
      <CharString index="16">
        56 callsubr
        -98 callgsubr
        return
      </CharString>
      <CharString index="17">
        rmoveto
        37 35 -24 -35 29 hvcurveto
        -90 callsubr
        vvcurveto
        return
      </CharString>
      <CharString index="18">
        hstem
        18 callgsubr
        vstem
        -106 callsubr
        return
      </CharString>
      <CharString index="19">
        5 10 79 163 114 vvcurveto
        -82 callsubr
        -37 callsubr
        return
      </CharString>
      <CharString index="20">
        rmoveto
        25 -5 -27 57 -22 hhcurveto
        47 callgsubr
        -8 hvcurveto
        -45 -8 -49 -4 vvcurveto
        -6 6 -1 2 vhcurveto
        109 hlineto
        13 6 9 0 0 58 69 22 18 hvcurveto
        0 4 5 4 vvcurveto
        2 25 callgsubr
        -17 -69 -27 -49 38 callsubr
        -4 -3 41 callgsubr
        3 -1 vhcurveto
        endchar
      </CharString>
      <CharString index="21">
        73 217 88 173 23 callsubr
        6 1 5 3 vvcurveto
        8 -7 1 -3 -45 -59 -96 3 2 vhcurveto
        0 -137 -129 -136 -157 vhcurveto
        return
      </CharString>
      <CharString index="22">
        -63 callsubr
        26 48 58 45 53 42 39 41 rlinecurve
        -72 callsubr
        -36 -29 30 53 33 56 14 26 return
      </CharString>
      <CharString index="23">
        rmoveto
        -57 -61 -37 -8 -15 hhcurveto
        -19 -8 15 21 32 15 41 0 hvcurveto
        3 6 4 1 0 vvcurveto
        134 51 132 118 78 vvcurveto
        24 -17 7 -22 return
      </CharString>
      <CharString index="24">
        31 30 38 32 17 -9 11 -15 -28 -34 -34 -36 -31 callgsubr
        endchar
      </CharString>
      <CharString index="25">
        144 410 rmoveto
        -68 callsubr
        71 hlineto
        5 14 9 8 2 -2 2 -12 hvcurveto
        -77 -78 callsubr
        71 -82 -58 callsubr
        return
      </CharString>
      <CharString index="26">
        -13 -6 -9 0 0 -58 -69 -22 -18 return
      </CharString>
      <CharString index="27">
        hstemhm
        hintmask 10110000
        676 731 rmoveto
        27 33 1 18 4 0 callgsubr
        2 -4 -15 -39 -28 2 2 vhcurveto
        -4 -7 -9 -1 -5 -18 -44 2 -29 hhcurveto
        -62 -72 -2 -3 -21 hvcurveto
        -31 -5 -74 -118 -20 vvcurveto
        -4 2 -5 6 4 5 2 5 8 vhcurveto
        0 96 118 143 12 31 0 -9 -2 -1 -4 -4 -4 vhcurveto
        -139 -158 -280 -209 -219 -331 rrcurveto
        0 -2 -3 -2 callsubr
        -7 16 19 callgsubr
        94 -3 98 vhcurveto
        hintmask 01110000
        67 70 2 4 41 hvcurveto
        8 16 0 19 12 hvcurveto
        9 15 99 142 36 vvcurveto
        5 -2 5 -6 -4 -6 -3 -6 -10 vhcurveto
        0 -62 -51 -41 -46 vhcurveto
        hintmask 10110000
        0 -77 -92 -123 -17 -39 0 18 5 2 5 5 8 vhcurveto
        176 282 221 158 190 237 rrcurveto
        return
      </CharString>
      <CharString index="28">
        200 250 rmoveto
        44 64 31 72 37 73 37 76 40 68 28 49 rrcurveto
        38 65 22 24 0 vvcurveto
        6 6 2 4 3 vvcurveto
        7 -8 2 0 -109 -52 -32 32 callgsubr
        -5 -6 -4 vvcurveto
        -3 3 -3 8 vhcurveto
        0 13 4 13 13 12 -4 -12 -47 -94 -137 -22 -43 vhcurveto
        -15 -29 -106 -191 -31 12 callsubr
        -5 9 21 19 16 18 14 vhcurveto
        return
      </CharString>
      <CharString index="29">
        -52 callsubr
        26 83 128 41 36 hvcurveto
        -56 callgsubr
        return
      </CharString>
      <CharString index="30">
        670 607 rmoveto
        95 126 26 30 0 vvcurveto
        7 7 3 5 39 callgsubr
        2 -7 -111 -99 -202 -85 -40 vhcurveto
        -28 -60 -107 -204 0 vvcurveto
        -18 -9 -7 -5 -4 hhcurveto
        -7 -2 16 0 hvcurveto
        1 26 0 34 37 vvcurveto
        164 -7 241 0 vhcurveto
        11 0 39 -15 -22 -42 -117 0 0 -22 -44 -55 -88 vhcurveto
        -25 -41 -264 -430 -97 vvcurveto
        -5 1 -5 5 3 6 3 6 8 vhcurveto
        0 74 46 77 202 vhcurveto
        34 89 79 169 56 80 10 callgsubr
        vhcurveto
        -1 -129 -19 -139 -136 vvcurveto
        -58 4 -56 9 -56 vhcurveto
        0 6 -28 13 7 9 9 25 12 vhcurveto
        0 122 326 226 298 vhcurveto
        return
      </CharString>
      <CharString index="31">
        rmoveto
        16 -15 -19 -32 callgsubr
        27 -55 -16 vvcurveto
        -10 -5 -6 0 vhcurveto
        -31 -33 -248 -138 -3 callgsubr
        -9 19 0 5 19 24 2 10 17 vhcurveto
        41 22 53 30 48 29 rrcurveto
        86 52 52 38 0 0 14 10 16 vvcurveto
        28 -67 122 -26 30 vhcurveto
        return
      </CharString>
      <CharString index="32">
        -7 callsubr
        159 -20 -89 callgsubr
        return
      </CharString>
      <CharString index="33">
        -107 -22 67 564 -20 -96 callgsubr
        return
      </CharString>
      <CharString index="34">
        hstem
        -27 62 vstem
        236 114 rmoveto
        19 50 3 57 66 vvcurveto
        131 67 35 0 vhcurveto
        6 3 2 4 2 vvcurveto
        5 -7 3 -3 -29 -21 -7 -9 -16 vhcurveto
        -29 -17 -15 -23 0 vvcurveto
        -20 -33 -123 -137 4 4 rrcurveto
        -4 -4 -3 -9 -7 12 callsubr
        -3 4 1 4 1 12 10 vhcurveto
        0 36 39 63 77 vhcurveto
        0 2 2 4 callgsubr
        -1 -7 0 -8 -207 -46 -73 vhcurveto
        0 -35 -66 -44 -16 -9 11 19 41 38 64 32 24 vhcurveto
        1 1 1 2 1 62 callgsubr
        2 -4 vhcurveto
        -26 -5 -20 -10 -19 -14 rrcurveto
        -37 -27 -27 -40 -38 vvcurveto
        -24 10 -33 63 45 105 34 106 40 vhcurveto
        return
      </CharString>
      <CharString index="35">
        57 -45 -53 33 -50 hhcurveto
        -57 -19 -59 -46 -19 7 -78 23 3 3 3 10 hvcurveto
        7 vlineto
        return
      </CharString>
      <CharString index="36">
        -39 -58 -76 -133 0 0 -72 -124 -52 vvcurveto
        -9 4 -14 13 33 83 78 59 callsubr
        return
      </CharString>
      <CharString index="37">
        36 1 36 43 38 vvcurveto
        20 -11 14 -19 -37 -35 -47 -36 -20 12 -13 18 vhcurveto
        return
      </CharString>
      <CharString index="38">
        -1 12 callgsubr
        -3 vvcurveto
        -6 2 -5 5 4 7 4 11 8 vhcurveto
        return
      </CharString>
      <CharString index="39">
        -13 16 25 -3 22 hhcurveto
        151 108 126 108 77 -60 35 0 hvcurveto
        -3 57 callgsubr
        vvcurveto
        3 6 4 0 vhcurveto
        67 19 91 49 84 vvcurveto
        48 -40 25 -52 -95 -29 -62 -1 -3 1 -7 5 56 callgsubr
        3 vhcurveto
        0 39 30 38 34 21 -23 -33 -84 -114 -45 -76 -2 -4 -1 -3 -3 -69 callsubr
        -3 7 callsubr
        98 -14 -88 vvcurveto
        -110 -111 -101 -102 -11 -10 1 2 -12 vhcurveto
        0 -12 0 -6 vvcurveto
        -2 1 -2 4 -3 vhcurveto
        return
      </CharString>
      <CharString index="40">
        16 25 rmoveto
        -120 -129 -173 -117 -43 20 -30 45 119 131 187 107 42 -22 27 -44 hvcurveto
        return
      </CharString>
      <CharString index="41">
        rmoveto
        -73 callsubr
        return
      </CharString>
      <CharString index="42">
        9 callsubr
        vhcurveto
        -67 callgsubr
        -132 388 17 callgsubr
        -87 -113 -185 -52 -57 callsubr
        return
      </CharString>
      <CharString index="43">
        244 97 rmoveto
        -88 callsubr
        -57 -60 -37 -8 -16 hhcurveto
        -21 -5 21 15 -19 callgsubr
        hvcurveto
        -35 callgsubr
        21 -17 8 -22 -153 -189 -236 -152 return
      </CharString>
      <CharString index="44">
        -66 callgsubr
        -347 -62 callgsubr
        return
      </CharString>
      <CharString index="45">
        -44 callgsubr
        -27 callsubr
        hvcurveto
        return
      </CharString>
      <CharString index="46">
        13 -28 hhcurveto
        -29 -35 -16 -16 -3 2 -1 4 2 2 0 1 3 hvcurveto
        2 7 5 1 6 hhcurveto
        return
      </CharString>
      <CharString index="47">
        101 vstem
        -22 -89 rmoveto
        -76 callsubr
        return
      </CharString>
      <CharString index="48">
        464 240 rmoveto
        8 13 17 35 30 vvcurveto
        9 -5 25 -10 -12 -18 -55 -48 -24 vhcurveto
        -204 -102 -108 -6 -13 hhcurveto
        -48 -12 49 46 184 146 245 131 121 hvcurveto
        0 56 56 50 20 7 -7 -10 -18 -18 -23 -9 -16 vhcurveto
        -23 -41 -34 -68 -28 vvcurveto
        -7 3 -3 4 12 25 23 16 15 vhcurveto
        26 28 117 132 48 vvcurveto
        return
      </CharString>
      <CharString index="49">
        rmoveto
        38 42 46 40 23 -14 15 -21 -32 -47 -43 -43 -23 13 -15 21 hvcurveto
        33 91 rmoveto
        10 5 -7 -10 -20 -21 -20 -15 -1 hvcurveto
        -9 -5 7 10 21 20 20 15 hvcurveto
        endchar
      </CharString>
      <CharString index="50">
        84 97 vhcurveto
        -54 callgsubr
        return
      </CharString>
      <CharString index="51">
        0 17 15 13 8 2 -6 -10 -9 -2 -14 -10 -21 vhcurveto
        return
      </CharString>
      <CharString index="52">
        rmoveto
        14 9 -10 -21 -136 -60 -132 -58 -100 hvcurveto
        return
      </CharString>
      <CharString index="53">
        2 4 callgsubr
        1 hhcurveto
        2 40 callsubr
        return
      </CharString>
      <CharString index="54">
        -47 callsubr
        -50 -50 -723 -740 0 0 -5 10 callsubr
        return
      </CharString>
      <CharString index="55">
        -73 -114 rrcurveto
        0 -27 -39 -12 -3 -3 3 14 71 68 107 0 vhcurveto
        return
      </CharString>
      <CharString index="56">
        799 -65 callsubr
        -272 -434 17 callgsubr
        hvcurveto
        return
      </CharString>
      <CharString index="57">
        0 0 -2 18 callsubr
        -7 12 41 callsubr
        53 -2 64 64 76 2 6 46 vhcurveto
        17 2 3 5 5 5 rrcurveto
        return
      </CharString>
      <CharString index="58">
        -210 -72 -21 201 -20 hstem
        8 -60 callgsubr
        endchar
      </CharString>
      <CharString index="59">
        -46 callsubr
        0 709 724 65 68 vhcurveto
        endchar
      </CharString>
      <CharString index="60">
        -20 hstem
        311 -2 rmoveto
        -62 callsubr
        return
      </CharString>
      <CharString index="61">
        14 1 13 14 58 callgsubr
        -7 0 -3 return
      </CharString>
      <CharString index="62">
        -8 4 -8 10 11 31 10 66 72 vhcurveto
        return
      </CharString>
      <CharString index="63">
        hlineto
        -16 -20 -25 -10 return
      </CharString>
      <CharString index="64">
        rmoveto
        -15 callsubr
        -59 callsubr
      </CharString>
      <CharString index="65">
        59 callgsubr
        -46 callgsubr
        return
      </CharString>
      <CharString index="66">
        205 116 rmoveto
        99 106 93 106 67 -47 50 -73 -100 -106 -95 -105 -67 48 -49 73 hvcurveto
        182 194 rmoveto
        -89 -83 -89 -95 -60 -41 45 60 93 88 86 90 60 41 -45 -61 vhcurveto
        return
      </CharString>
      <CharString index="67">
        121 130 171 111 39 return
      </CharString>
      <CharString index="68">
        3 hhcurveto
        -21 callsubr
        return
      </CharString>
      <CharString index="69">
        hstem
        338 626 rmoveto
        15 49 50 73 23 callsubr
        15 callgsubr
        -12 0 -2 vhcurveto
        -55 -4 -8 -23 0 0 -25 -40 -39 vvcurveto
        -11 5 -35 18 4 53 callgsubr
        return
      </CharString>
      <CharString index="70">
        -11 11 -3 -12 vvcurveto
        -16 -16 -8 -12 vhcurveto
        -8 -6 4 -7 hhcurveto
        -3 -4 -2 -5 hvcurveto
        -16 4 19 -2 12 hhcurveto
        28 26 20 27 14 -9 9 -1 11 hvcurveto
        8 4 8 13 7 vhcurveto
        return
      </CharString>
      <CharString index="71">
        0 -4 -6 -5 vvcurveto
        -5 4 -5 13 26 59 7 60 31 vhcurveto
        return
      </CharString>
      <CharString index="72">
        0 -3 55 callsubr
        2 -1 3 13 39 34 2 2 vhcurveto
        33 32 32 46 35 vvcurveto
        return
      </CharString>
      <CharString index="73">
        0 3 4 4 vhcurveto
        hintmask 11011000
        6 13 -14 33 hhcurveto
        179 103 268 1 hvcurveto
        24 59 7 41 28 vvcurveto
        29 -8 35 -31 -60 -84 -111 0 vhcurveto
        47 callgsubr
        -1 return
      </CharString>
      <CharString index="74">
        622 -21 155 -20 hstem
        247 601 rmoveto
        -48 callsubr
        return
      </CharString>
      <CharString index="75">
        3 -19 hhcurveto
        -19 -5 -7 -6 -7 5 -6 0 hvcurveto
        58 -100 return
      </CharString>
      <CharString index="76">
        -17 9 -11 16 hvcurveto
        return
      </CharString>
      <CharString index="77">
        -123 -127 -60 -86 -61 75 -34 0 hvcurveto
        -1 3 2 -1 3 hhcurveto
        -18 callsubr
        4 4 -2 4 -3 6 hvcurveto
        -11 19 -4 18 17 vvcurveto
        100 116 43 return
      </CharString>
      <CharString index="78">
        0 0 vhcurveto
        return
      </CharString>
      <CharString index="79">
        -34 37 hhcurveto
        22 28 12 47 26 hvcurveto
        endchar
      </CharString>
      <CharString index="80">
        -5 callsubr
        vvcurveto
        return
      </CharString>
      <CharString index="81">
        35 17 -28 callgsubr
      </CharString>
      <CharString index="82">
        rmoveto
        2 -60 callsubr
        11 -14 0 -8 -16 -18 -1 -19 -11 vhcurveto
        return
      </CharString>
      <CharString index="83">
        -13 0 -31 17 4 4 4 12 return
      </CharString>
      <CharString index="84">
        8 20 callsubr
        425 27 return
      </CharString>
      <CharString index="85">
        97 rmoveto
        -103 callgsubr
        return
      </CharString>
      <CharString index="86">
        51 -14 26 401 30 288 28 return
      </CharString>
      <CharString index="87">
        -2 hhcurveto
        -2 0 2 return
      </CharString>
      <CharString index="88">
        93 131 228 65 10 3 -9 -11 -31 -22 -45 -18 -32 return
      </CharString>
      <CharString index="89">
        rlineto
        -2 -4 -6 callgsubr
        return
      </CharString>
      <CharString index="90">
        1 2 2 return
      </CharString>
      <CharString index="91">
        6 -15 -16 2 -16 hhcurveto
        -79 -81 -59 0 hvcurveto
        -189 -145 -136 -255 -210 vvcurveto
        -53 13 -71 70 return
      </CharString>
      <CharString index="92">
        0 0 -3 18 callsubr
        return
      </CharString>
      <CharString index="93">
        82 -30 47 649 98 return
      </CharString>
      <CharString index="94">
        -13 32 -23 -21 350 25 50 32 306 25 9 -20 hstemhm
        178 64 52 64 78 57 59 57 return
      </CharString>
      <CharString index="95">
        0 vvcurveto
        55 108 9 39 0 vvcurveto
        1 2 0 4 -1 callgsubr
        -1 6 -6 -9 -14 -15 0 vhcurveto
        return
      </CharString>
      <CharString index="96">
        rmoveto
        7 -10 3 -10 -14 -5 -4 -15 -9 vhcurveto
        -30 -50 return
      </CharString>
      <CharString index="97">
        -34 69 rmoveto
        -2 -5 -1 -5 -5 vvcurveto
        -61 136 -18 45 149 158 108 167 vhcurveto
        return
      </CharString>
      <CharString index="98">
        2 -39 callsubr
        return
      </CharString>
      <CharString index="99">
        13 callsubr
        9 -4 1 -3 -32 -53 -73 6 callgsubr
        return
      </CharString>
      <CharString index="100">
        -167 -23 -21 786 28 return
      </CharString>
      <CharString index="101">
        19 callsubr
        vvcurveto
        return
      </CharString>
      <CharString index="102">
        -62 callgsubr
        endchar
      </CharString>
      <CharString index="103">
        52 17 -45 50 hhcurveto
        30 37 17 62 35 hvcurveto
        return
      </CharString>
      <CharString index="104">
        0 vvcurveto
        -12 -8 -2 -4 -3 vvcurveto
        return
      </CharString>
      <CharString index="105">
        -5 -3 -2 -2 55 callgsubr
        return
      </CharString>
      <CharString index="106">
        4 vvcurveto
        6 return
      </CharString>
      <CharString index="107">
        vvcurveto
        4 -2 return
      </CharString>
      <CharString index="108">
        54 callsubr
        69 23 52 103 vhcurveto
        return
      </CharString>
      <CharString index="109">
        79 -86 -21 108 -21 return
      </CharString>
      <CharString index="110">
        -11 -16 -14 -3 -14 hhcurveto
        return
      </CharString>
      <CharString index="111">
        2 2 1 return
      </CharString>
      <CharString index="112">
        14 3 12 12 8 vvcurveto
        1 0 2 14 callgsubr
        return
      </CharString>
      <CharString index="113">
        0 vhcurveto
        45 callsubr
        -1 -1 return
      </CharString>
      <CharString index="114">
        hstemhm
        49 36 235 return
      </CharString>
      <CharString index="115">
        0 vvcurveto
        26 return
      </CharString>
      <CharString index="116">
        0 0 -10 -9 -14 vvcurveto
        -5 1 -5 5 3 4 2 4 6 vhcurveto
        return
      </CharString>
      <CharString index="117">
        rrcurveto
        0 8 12 5 2 2 -3 -7 return
      </CharString>
      <CharString index="118">
        9 13 3 8 5 vvcurveto
        6 -5 1 -8 -50 -45 -74 0 0 return
      </CharString>
      <CharString index="119">
        -4 -1 -4 return
      </CharString>
      <CharString index="120">
        -1 -24 0 0 vvcurveto
        -10 -19 -13 -9 -4 5 -3 11 hvcurveto
        return
      </CharString>
      <CharString index="121">
        -1 1 vhcurveto
        2 -2 -5 0 -3 return
      </CharString>
      <CharString index="122">
        4 1 4 2 vvcurveto
        8 return
      </CharString>
      <CharString index="123">
        53 -19 32 48 callgsubr
        return
      </CharString>
      <CharString index="124">
        rmoveto
        18 7 -13 -21 return
      </CharString>
      <CharString index="125">
        5 79 266 47 return
      </CharString>
      <CharString index="126">
        -2 vhcurveto
        0 return
      </CharString>
      <CharString index="127">
        hhcurveto
        -3 -2 return
      </CharString>
      <CharString index="128">
        0 vvcurveto
        -15 3 18 0 7 hhcurveto
        7 7 2 10 hvcurveto
        return
      </CharString>
      <CharString index="129">
        -109 hlineto
        return
      </CharString>
      <CharString index="130">
        vhcurveto
        0 -2 return
      </CharString>
      <CharString index="131">
        -3 vhcurveto
        0 return
      </CharString>
      <CharString index="132">
        -3 2 -4 return
      </CharString>
      <CharString index="133">
        rrcurveto
        14 -4 -3 5 -13 hhcurveto
        -10 -10 -4 -10 hvcurveto
        return
      </CharString>
      <CharString index="134">
        -35 -560 -21 589 -21 return
      </CharString>
      <CharString index="135">
        86 75 86 return
      </CharString>
      <CharString index="136">
        8 3 10 19 14 0 callgsubr
        5 -7 vhcurveto
        return
      </CharString>
      <CharString index="137">
        -6 -3 -5 -1 -3 20 callgsubr
        1 0 hvcurveto
        return
      </CharString>
      <CharString index="138">
        -21 408 -20 hstem
        return
      </CharString>
      <CharString index="139">
        0 vhcurveto
        0 return
      </CharString>
      <CharString index="140">
        1 0 -2 return
      </CharString>
      <CharString index="141">
        hlineto
        -10 -15 -10 -12 -4 3 -3 10 hvcurveto
        return
      </CharString>
      <CharString index="142">
        7 -24 1 -11 -18 -11 -5 -8 -10 vhcurveto
        return
      </CharString>
      <CharString index="143">
        hlineto
        -12 -16 -12 -11 -4 3 -2 12 hvcurveto
        return
      </CharString>
      <CharString index="144">
        hlineto
        -8 -10 -25 -10 -4 1 -6 7 hvcurveto
        return
      </CharString>
      <CharString index="145">
        -20 hstemhm
        hintmask 10100000
        return
      </CharString>
      <CharString index="146">
        -1 callgsubr
        -7 return
      </CharString>
      <CharString index="147">
        0 -1 -1 return
      </CharString>
      <CharString index="148">
        -1 -1 1 return
      </CharString>
      <CharString index="149">
        4 3 1 return
      </CharString>
      <CharString index="150">
        hstemhm
        -37 122 175 98 -9 102 return
      </CharString>
      <CharString index="151">
        -13 235 -231 -21 194 58 return
      </CharString>
      <CharString index="152">
        -173 -57 return
      </CharString>
      <CharString index="153">
        3 3 1 return
      </CharString>
      <CharString index="154">
        -3 -3 -2 return
      </CharString>
      <CharString index="155">
        2 -20 hstemhm
        return
      </CharString>
      <CharString index="156">
        0 vvcurveto
        -6 -6 -5 -3 -3 hhcurveto
        return
      </CharString>
      <CharString index="157">
        -8 -10 159 217 34 vvcurveto
        return
      </CharString>
      <CharString index="158">
        -38 -33 -47 -38 -17 7 -17 21 return
      </CharString>
      <CharString index="159">
        rlineto
        4 callgsubr
        2 return
      </CharString>
      <CharString index="160">
        3 3 9 3 vhcurveto
        return
      </CharString>
      <CharString index="161">
        -7 -5 vvcurveto
        -5 2 return
      </CharString>
      <CharString index="162">
        hhcurveto
        41 callgsubr
        return
      </CharString>
      <CharString index="163">
        2 2 0 2 return
      </CharString>
      <CharString index="164">
        2 0 1 2 return
      </CharString>
      <CharString index="165">
        8 vvcurveto
        6 return
      </CharString>
      <CharString index="166">
        414 rmoveto
        return
      </CharString>
      <CharString index="167">
        4 9 10 return
      </CharString>
      <CharString index="168">
        vvcurveto
        6 -2 return
      </CharString>
      <CharString index="169">
        vvcurveto
        2 -1 return
      </CharString>
</ttFont>
